solid OpenSCAD_Model
  facet normal 0.994522 0.104529 0
    outer loop
      vertex 12.5 4.5 3
      vertex 12.3361 6.05934 0
      vertex 12.3361 6.05934 3
    endloop
  endfacet
  facet normal 0.994522 0.104529 0
    outer loop
      vertex 12.3361 6.05934 0
      vertex 12.5 4.5 3
      vertex 12.5 4.5 0
    endloop
  endfacet
  facet normal 0 1 -0
    outer loop
      vertex 5.78396 11.9589 0
      vertex 4.21604 11.9589 3
      vertex 5.78396 11.9589 3
    endloop
  endfacet
  facet normal 0 1 0
    outer loop
      vertex 4.21604 11.9589 3
      vertex 5.78396 11.9589 0
      vertex 4.21604 11.9589 0
    endloop
  endfacet
  facet normal 0.587785 0.809017 -0
    outer loop
      vertex 10.0185 10.0736 0
      vertex 8.75 10.9952 3
      vertex 10.0185 10.0736 3
    endloop
  endfacet
  facet normal 0.587785 0.809017 0
    outer loop
      vertex 8.75 10.9952 3
      vertex 10.0185 10.0736 0
      vertex 8.75 10.9952 0
    endloop
  endfacet
  facet normal -0.743145 0.669131 0
    outer loop
      vertex -1.06763 8.90839 0
      vertex -0.0184793 10.0736 3
      vertex -0.0184793 10.0736 0
    endloop
  endfacet
  facet normal -0.743145 0.669131 0
    outer loop
      vertex -0.0184793 10.0736 3
      vertex -1.06763 8.90839 0
      vertex -1.06763 8.90839 3
    endloop
  endfacet
  facet normal -0.406737 0.913545 0
    outer loop
      vertex 2.68237 11.6329 0
      vertex 1.25 10.9952 3
      vertex 2.68237 11.6329 3
    endloop
  endfacet
  facet normal -0.406737 0.913545 0
    outer loop
      vertex 1.25 10.9952 3
      vertex 2.68237 11.6329 0
      vertex 1.25 10.9952 0
    endloop
  endfacet
  facet normal 0.743145 -0.669131 0
    outer loop
      vertex 10.0185 -1.07359 3
      vertex 11.0676 0.09161 0
      vertex 11.0676 0.09161 3
    endloop
  endfacet
  facet normal 0.743145 -0.669131 0
    outer loop
      vertex 11.0676 0.09161 0
      vertex 10.0185 -1.07359 3
      vertex 10.0185 -1.07359 0
    endloop
  endfacet
  facet normal 0.866025 0.5 0
    outer loop
      vertex 11.8516 7.55052 3
      vertex 11.0676 8.90839 0
      vertex 11.0676 8.90839 3
    endloop
  endfacet
  facet normal 0.866025 0.5 0
    outer loop
      vertex 11.0676 8.90839 0
      vertex 11.8516 7.55052 3
      vertex 11.8516 7.55052 0
    endloop
  endfacet
  facet normal 0.951057 0.309017 0
    outer loop
      vertex 12.3361 6.05934 3
      vertex 11.8516 7.55052 0
      vertex 11.8516 7.55052 3
    endloop
  endfacet
  facet normal 0.951057 0.309017 0
    outer loop
      vertex 11.8516 7.55052 0
      vertex 12.3361 6.05934 3
      vertex 12.3361 6.05934 0
    endloop
  endfacet
  facet normal 0.743145 0.669131 0
    outer loop
      vertex 11.0676 8.90839 3
      vertex 10.0185 10.0736 0
      vertex 10.0185 10.0736 3
    endloop
  endfacet
  facet normal 0.743145 0.669131 0
    outer loop
      vertex 10.0185 10.0736 0
      vertex 11.0676 8.90839 3
      vertex 11.0676 8.90839 0
    endloop
  endfacet
  facet normal 0.207912 0.978148 -0
    outer loop
      vertex 7.31763 11.6329 0
      vertex 5.78396 11.9589 3
      vertex 7.31763 11.6329 3
    endloop
  endfacet
  facet normal 0.207912 0.978148 0
    outer loop
      vertex 5.78396 11.9589 3
      vertex 7.31763 11.6329 0
      vertex 5.78396 11.9589 0
    endloop
  endfacet
  facet normal 0.406737 0.913545 -0
    outer loop
      vertex 8.75 10.9952 0
      vertex 7.31763 11.6329 3
      vertex 8.75 10.9952 3
    endloop
  endfacet
  facet normal 0.406737 0.913545 0
    outer loop
      vertex 7.31763 11.6329 3
      vertex 8.75 10.9952 0
      vertex 7.31763 11.6329 0
    endloop
  endfacet
  facet normal -0.951057 0.309017 0
    outer loop
      vertex -2.33611 6.05934 0
      vertex -1.85159 7.55052 3
      vertex -1.85159 7.55052 0
    endloop
  endfacet
  facet normal -0.951057 0.309017 0
    outer loop
      vertex -1.85159 7.55052 3
      vertex -2.33611 6.05934 0
      vertex -2.33611 6.05934 3
    endloop
  endfacet
  facet normal 0 0 -1
    outer loop
      vertex 4.79443 5.44046 0
      vertex 6 7 0
      vertex 4.96167 5.15078 0
    endloop
  endfacet
  facet normal 0 0 -1
    outer loop
      vertex 4.57061 5.68903 0
      vertex 6 7 0
      vertex 4.79443 5.44046 0
    endloop
  endfacet
  facet normal 0 0 -1
    outer loop
      vertex 4.3 5.88564 0
      vertex 6 7 0
      vertex 4.57061 5.68903 0
    endloop
  endfacet
  facet normal 0 0 -1
    outer loop
      vertex 3.99443 6.02169 0
      vertex 6 7 0
      vertex 4.3 5.88564 0
    endloop
  endfacet
  facet normal -0 0 -1
    outer loop
      vertex 6 7 0
      vertex 3.99443 6.02169 0
      vertex 6 8.75 0
    endloop
  endfacet
  facet normal 0 0 -1
    outer loop
      vertex 3.66724 6.09123 0
      vertex 6 8.75 0
      vertex 3.99443 6.02169 0
    endloop
  endfacet
  facet normal 0 0 -1
    outer loop
      vertex 6 8.75 0
      vertex 4.21604 11.9589 0
      vertex 5.78396 11.9589 0
    endloop
  endfacet
  facet normal 0 0 -1
    outer loop
      vertex 3.33275 6.09123 0
      vertex 6 8.75 0
      vertex 3.66724 6.09123 0
    endloop
  endfacet
  facet normal -0 0 -1
    outer loop
      vertex 6 8.75 0
      vertex 3.33275 6.09123 0
      vertex 2.68237 11.6329 0
    endloop
  endfacet
  facet normal 0 0 -1
    outer loop
      vertex 1.25 10.9952 0
      vertex 3.33275 6.09123 0
      vertex 3.00557 6.02169 0
    endloop
  endfacet
  facet normal 0 0 -1
    outer loop
      vertex -0.0184793 10.0736 0
      vertex 3.00557 6.02169 0
      vertex 2.7 5.88564 0
    endloop
  endfacet
  facet normal 0 0 -1
    outer loop
      vertex 6 8.75 0
      vertex 2.68237 11.6329 0
      vertex 4.21604 11.9589 0
    endloop
  endfacet
  facet normal 0 0 -1
    outer loop
      vertex -1.06763 8.90839 0
      vertex 2.7 5.88564 0
      vertex 2.42939 5.68903 0
    endloop
  endfacet
  facet normal 0 0 -1
    outer loop
      vertex -1.06763 8.90839 0
      vertex 2.42939 5.68903 0
      vertex 2.20557 5.44046 0
    endloop
  endfacet
  facet normal 0 0 -1
    outer loop
      vertex -1.85159 7.55052 0
      vertex 2.20557 5.44046 0
      vertex 2.03833 5.15078 0
    endloop
  endfacet
  facet normal 0 0 -1
    outer loop
      vertex -2.33611 6.05934 0
      vertex 2.03833 5.15078 0
      vertex 1.93496 4.83266 0
    endloop
  endfacet
  facet normal 0 0 -1
    outer loop
      vertex 3.33275 6.09123 0
      vertex 1.25 10.9952 0
      vertex 2.68237 11.6329 0
    endloop
  endfacet
  facet normal 0 0 -1
    outer loop
      vertex -2.5 4.5 0
      vertex 1.93496 4.83266 0
      vertex 1.9 4.5 0
    endloop
  endfacet
  facet normal 0 0 -1
    outer loop
      vertex 5.06504 4.16734 0
      vertex 9 2 0
      vertex 6 2 0
    endloop
  endfacet
  facet normal 0 0 -1
    outer loop
      vertex 9 2 0
      vertex 5.1 4.5 0
      vertex 9 7 0
    endloop
  endfacet
  facet normal 0 0 -1
    outer loop
      vertex 9 2 0
      vertex 12.5 4.5 0
      vertex 12.3361 2.94066 0
    endloop
  endfacet
  facet normal 0 0 -1
    outer loop
      vertex 9 2 0
      vertex 12.3361 2.94066 0
      vertex 11.8516 1.44947 0
    endloop
  endfacet
  facet normal 0 0 -1
    outer loop
      vertex 9 7 0
      vertex 12.5 4.5 0
      vertex 9 2 0
    endloop
  endfacet
  facet normal 0 0 -1
    outer loop
      vertex 9 2 0
      vertex 11.8516 1.44947 0
      vertex 11.0676 0.09161 0
    endloop
  endfacet
  facet normal 0 0 -1
    outer loop
      vertex 12.5 4.5 0
      vertex 9 7 0
      vertex 12.3361 6.05934 0
    endloop
  endfacet
  facet normal 0 0 -1
    outer loop
      vertex 9 0.25 0
      vertex 11.0676 0.09161 0
      vertex 10.0185 -1.07359 0
    endloop
  endfacet
  facet normal 0 0 -1
    outer loop
      vertex 12.3361 6.05934 0
      vertex 9 7 0
      vertex 11.8516 7.55052 0
    endloop
  endfacet
  facet normal 0 0 -1
    outer loop
      vertex 11.0676 0.09161 0
      vertex 9 0.25 0
      vertex 9 2 0
    endloop
  endfacet
  facet normal 0 0 -1
    outer loop
      vertex 8.75 -1.99519 0
      vertex 9 0.25 0
      vertex 10.0185 -1.07359 0
    endloop
  endfacet
  facet normal 0 0 -1
    outer loop
      vertex 6 0.25 0
      vertex 8.75 -1.99519 0
      vertex 7.31763 -2.63292 0
    endloop
  endfacet
  facet normal 0 0 -1
    outer loop
      vertex 8.75 -1.99519 0
      vertex 6 0.25 0
      vertex 9 0.25 0
    endloop
  endfacet
  facet normal 0 0 -1
    outer loop
      vertex 3.99443 2.97831 0
      vertex 6 2 0
      vertex 6 0.25 0
    endloop
  endfacet
  facet normal 0 0 -1
    outer loop
      vertex 5.06504 4.83266 0
      vertex 9 7 0
      vertex 5.1 4.5 0
    endloop
  endfacet
  facet normal 0 0 -1
    outer loop
      vertex 4.21604 -2.95891 0
      vertex 6 0.25 0
      vertex 5.78396 -2.95891 0
    endloop
  endfacet
  facet normal 0 0 -1
    outer loop
      vertex 5.78396 -2.95891 0
      vertex 6 0.25 0
      vertex 7.31763 -2.63292 0
    endloop
  endfacet
  facet normal -0 0 -1
    outer loop
      vertex 11.8516 7.55052 0
      vertex 9 7 0
      vertex 11.0676 8.90839 0
    endloop
  endfacet
  facet normal 0 0 -1
    outer loop
      vertex 9 8.75 0
      vertex 11.0676 8.90839 0
      vertex 9 7 0
    endloop
  endfacet
  facet normal -0 0 -1
    outer loop
      vertex 11.0676 8.90839 0
      vertex 9 8.75 0
      vertex 10.0185 10.0736 0
    endloop
  endfacet
  facet normal 0 0 -1
    outer loop
      vertex 9 8.75 0
      vertex 8.75 10.9952 0
      vertex 10.0185 10.0736 0
    endloop
  endfacet
  facet normal 0 0 -1
    outer loop
      vertex 6 8.75 0
      vertex 8.75 10.9952 0
      vertex 9 8.75 0
    endloop
  endfacet
  facet normal -0 0 -1
    outer loop
      vertex 8.75 10.9952 0
      vertex 6 8.75 0
      vertex 7.31763 11.6329 0
    endloop
  endfacet
  facet normal 0 0 -1
    outer loop
      vertex 6 8.75 0
      vertex 5.78396 11.9589 0
      vertex 7.31763 11.6329 0
    endloop
  endfacet
  facet normal -0 0 -1
    outer loop
      vertex 9 7 0
      vertex 5.06504 4.83266 0
      vertex 6 7 0
    endloop
  endfacet
  facet normal 0 0 -1
    outer loop
      vertex 4.96167 5.15078 0
      vertex 6 7 0
      vertex 5.06504 4.83266 0
    endloop
  endfacet
  facet normal 0 0 -1
    outer loop
      vertex 9 2 0
      vertex 5.06504 4.16734 0
      vertex 5.1 4.5 0
    endloop
  endfacet
  facet normal 0 0 -1
    outer loop
      vertex 6 2 0
      vertex 4.96167 3.84922 0
      vertex 5.06504 4.16734 0
    endloop
  endfacet
  facet normal 0 0 -1
    outer loop
      vertex 6 2 0
      vertex 4.79443 3.55954 0
      vertex 4.96167 3.84922 0
    endloop
  endfacet
  facet normal 0 0 -1
    outer loop
      vertex 6 2 0
      vertex 4.57061 3.31097 0
      vertex 4.79443 3.55954 0
    endloop
  endfacet
  facet normal 0 0 -1
    outer loop
      vertex 6 2 0
      vertex 4.3 3.11436 0
      vertex 4.57061 3.31097 0
    endloop
  endfacet
  facet normal 0 0 -1
    outer loop
      vertex 2.68237 -2.63292 0
      vertex 6 0.25 0
      vertex 4.21604 -2.95891 0
    endloop
  endfacet
  facet normal 0 0 -1
    outer loop
      vertex 6 2 0
      vertex 3.99443 2.97831 0
      vertex 4.3 3.11436 0
    endloop
  endfacet
  facet normal 0 0 -1
    outer loop
      vertex 6 0.25 0
      vertex 3.66724 2.90876 0
      vertex 3.99443 2.97831 0
    endloop
  endfacet
  facet normal 0 -0 -1
    outer loop
      vertex 3.33275 2.90876 0
      vertex 6 0.25 0
      vertex 2.68237 -2.63292 0
    endloop
  endfacet
  facet normal 0 0 -1
    outer loop
      vertex 6 0.25 0
      vertex 3.33275 2.90876 0
      vertex 3.66724 2.90876 0
    endloop
  endfacet
  facet normal 0 0 -1
    outer loop
      vertex 1.25 -1.99519 0
      vertex 3.33275 2.90876 0
      vertex 2.68237 -2.63292 0
    endloop
  endfacet
  facet normal -0 0 -1
    outer loop
      vertex 3.33275 2.90876 0
      vertex 1.25 -1.99519 0
      vertex 3.00557 2.97831 0
    endloop
  endfacet
  facet normal 0 0 -1
    outer loop
      vertex -0.0184793 -1.07359 0
      vertex 3.00557 2.97831 0
      vertex 1.25 -1.99519 0
    endloop
  endfacet
  facet normal -0 0 -1
    outer loop
      vertex 3.00557 2.97831 0
      vertex -0.0184793 -1.07359 0
      vertex 2.7 3.11436 0
    endloop
  endfacet
  facet normal 0 0 -1
    outer loop
      vertex -1.06763 0.09161 0
      vertex 2.7 3.11436 0
      vertex -0.0184793 -1.07359 0
    endloop
  endfacet
  facet normal -0 0 -1
    outer loop
      vertex 2.7 3.11436 0
      vertex -1.06763 0.09161 0
      vertex 2.42939 3.31097 0
    endloop
  endfacet
  facet normal -0 0 -1
    outer loop
      vertex 2.42939 3.31097 0
      vertex -1.06763 0.09161 0
      vertex 2.20557 3.55954 0
    endloop
  endfacet
  facet normal 0 0 -1
    outer loop
      vertex -1.85159 1.44947 0
      vertex 2.20557 3.55954 0
      vertex -1.06763 0.09161 0
    endloop
  endfacet
  facet normal -0 0 -1
    outer loop
      vertex 2.20557 3.55954 0
      vertex -1.85159 1.44947 0
      vertex 2.03833 3.84922 0
    endloop
  endfacet
  facet normal 0 0 -1
    outer loop
      vertex -2.33611 2.94066 0
      vertex 2.03833 3.84922 0
      vertex -1.85159 1.44947 0
    endloop
  endfacet
  facet normal 0 0 -1
    outer loop
      vertex 3.00557 6.02169 0
      vertex -0.0184793 10.0736 0
      vertex 1.25 10.9952 0
    endloop
  endfacet
  facet normal -0 0 -1
    outer loop
      vertex 2.03833 3.84922 0
      vertex -2.33611 2.94066 0
      vertex 1.93496 4.16734 0
    endloop
  endfacet
  facet normal 0 0 -1
    outer loop
      vertex 2.7 5.88564 0
      vertex -1.06763 8.90839 0
      vertex -0.0184793 10.0736 0
    endloop
  endfacet
  facet normal 0 0 -1
    outer loop
      vertex -2.5 4.5 0
      vertex 1.93496 4.16734 0
      vertex -2.33611 2.94066 0
    endloop
  endfacet
  facet normal 0 0 -1
    outer loop
      vertex 2.20557 5.44046 0
      vertex -1.85159 7.55052 0
      vertex -1.06763 8.90839 0
    endloop
  endfacet
  facet normal 0 0 -1
    outer loop
      vertex 1.93496 4.16734 0
      vertex -2.5 4.5 0
      vertex 1.9 4.5 0
    endloop
  endfacet
  facet normal 0 0 -1
    outer loop
      vertex 2.03833 5.15078 0
      vertex -2.33611 6.05934 0
      vertex -1.85159 7.55052 0
    endloop
  endfacet
  facet normal -0 0 -1
    outer loop
      vertex 1.93496 4.83266 0
      vertex -2.5 4.5 0
      vertex -2.33611 6.05934 0
    endloop
  endfacet
  facet normal -0.866025 0.5 0
    outer loop
      vertex -1.85159 7.55052 0
      vertex -1.06763 8.90839 3
      vertex -1.06763 8.90839 0
    endloop
  endfacet
  facet normal -0.866025 0.5 0
    outer loop
      vertex -1.06763 8.90839 3
      vertex -1.85159 7.55052 0
      vertex -1.85159 7.55052 3
    endloop
  endfacet
  facet normal -0.994522 0.104529 0
    outer loop
      vertex -2.5 4.5 0
      vertex -2.33611 6.05934 3
      vertex -2.33611 6.05934 0
    endloop
  endfacet
  facet normal -0.994522 0.104529 0
    outer loop
      vertex -2.33611 6.05934 3
      vertex -2.5 4.5 0
      vertex -2.5 4.5 3
    endloop
  endfacet
  facet normal -0 0 1
    outer loop
      vertex 0 1.5 3
      vertex 6 0.25 3
      vertex 6 1.5 3
    endloop
  endfacet
  facet normal 0 0 1
    outer loop
      vertex 6 0.25 3
      vertex 4.21604 -2.95891 3
      vertex 5.78396 -2.95891 3
    endloop
  endfacet
  facet normal 0 0 1
    outer loop
      vertex 6 0.25 3
      vertex 2.68237 -2.63292 3
      vertex 4.21604 -2.95891 3
    endloop
  endfacet
  facet normal 0 0 1
    outer loop
      vertex 6 0.25 3
      vertex 1.25 -1.99519 3
      vertex 2.68237 -2.63292 3
    endloop
  endfacet
  facet normal 0 0 1
    outer loop
      vertex 6 0.25 3
      vertex 0 1.5 3
      vertex 1.25 -1.99519 3
    endloop
  endfacet
  facet normal 0 0 1
    outer loop
      vertex 0 1.5 3
      vertex -0.0184793 -1.07359 3
      vertex 1.25 -1.99519 3
    endloop
  endfacet
  facet normal -0 0 1
    outer loop
      vertex -1.85159 7.55052 3
      vertex 0 7.5 3
      vertex -1.06763 8.90839 3
    endloop
  endfacet
  facet normal 0 0 1
    outer loop
      vertex -2.33611 6.05934 3
      vertex 0 7.5 3
      vertex -1.85159 7.55052 3
    endloop
  endfacet
  facet normal 0 0 1
    outer loop
      vertex 0 1.5 3
      vertex -1.06763 0.09161 3
      vertex -0.0184793 -1.07359 3
    endloop
  endfacet
  facet normal 0 0 1
    outer loop
      vertex -2.5 4.5 3
      vertex 0 7.5 3
      vertex -2.33611 6.05934 3
    endloop
  endfacet
  facet normal 0 0 1
    outer loop
      vertex 0 1.5 3
      vertex -1.85159 1.44947 3
      vertex -1.06763 0.09161 3
    endloop
  endfacet
  facet normal 0 0 1
    outer loop
      vertex 0 7.5 3
      vertex -2.5 4.5 3
      vertex 0 1.5 3
    endloop
  endfacet
  facet normal 0 0 1
    outer loop
      vertex 0 1.5 3
      vertex -2.33611 2.94066 3
      vertex -1.85159 1.44947 3
    endloop
  endfacet
  facet normal 0 0 1
    outer loop
      vertex 0 1.5 3
      vertex -2.5 4.5 3
      vertex -2.33611 2.94066 3
    endloop
  endfacet
  facet normal 0 0 1
    outer loop
      vertex 10 7.5 3
      vertex 12.5 4.5 3
      vertex 12.3361 6.05934 3
    endloop
  endfacet
  facet normal -0 0 1
    outer loop
      vertex 10 7.5 3
      vertex 12.3361 6.05934 3
      vertex 11.8516 7.55052 3
    endloop
  endfacet
  facet normal 0 0 1
    outer loop
      vertex 10 1.5 3
      vertex 12.5 4.5 3
      vertex 10 7.5 3
    endloop
  endfacet
  facet normal 0 0 1
    outer loop
      vertex 10 7.5 3
      vertex 11.8516 7.55052 3
      vertex 11.0676 8.90839 3
    endloop
  endfacet
  facet normal 0 0 1
    outer loop
      vertex 12.5 4.5 3
      vertex 10 1.5 3
      vertex 12.3361 2.94066 3
    endloop
  endfacet
  facet normal 0 0 1
    outer loop
      vertex 9 8.75 3
      vertex 11.0676 8.90839 3
      vertex 10.0185 10.0736 3
    endloop
  endfacet
  facet normal 0 0 1
    outer loop
      vertex 12.3361 2.94066 3
      vertex 10 1.5 3
      vertex 11.8516 1.44947 3
    endloop
  endfacet
  facet normal 0 0 1
    outer loop
      vertex 11.8516 1.44947 3
      vertex 10 1.5 3
      vertex 11.0676 0.09161 3
    endloop
  endfacet
  facet normal 0 0 1
    outer loop
      vertex 11.0676 8.90839 3
      vertex 9 8.75 3
      vertex 10 7.5 3
    endloop
  endfacet
  facet normal 0 0 1
    outer loop
      vertex 8.75 10.9952 3
      vertex 9 8.75 3
      vertex 10.0185 10.0736 3
    endloop
  endfacet
  facet normal 0 0 1
    outer loop
      vertex 6 8.75 3
      vertex 8.75 10.9952 3
      vertex 7.31763 11.6329 3
    endloop
  endfacet
  facet normal 0 0 1
    outer loop
      vertex 8.75 10.9952 3
      vertex 6 8.75 3
      vertex 9 8.75 3
    endloop
  endfacet
  facet normal 0 0 1
    outer loop
      vertex 5.78396 11.9589 3
      vertex 6 8.75 3
      vertex 7.31763 11.6329 3
    endloop
  endfacet
  facet normal -0 0 1
    outer loop
      vertex 4.21604 11.9589 3
      vertex 6 8.75 3
      vertex 5.78396 11.9589 3
    endloop
  endfacet
  facet normal -0 0 1
    outer loop
      vertex 2.68237 11.6329 3
      vertex 6 8.75 3
      vertex 4.21604 11.9589 3
    endloop
  endfacet
  facet normal -0 0 1
    outer loop
      vertex 1.25 10.9952 3
      vertex 6 8.75 3
      vertex 2.68237 11.6329 3
    endloop
  endfacet
  facet normal 0 0 1
    outer loop
      vertex 0 7.5 3
      vertex 6 8.75 3
      vertex 1.25 10.9952 3
    endloop
  endfacet
  facet normal 0 0 1
    outer loop
      vertex 6 8.75 3
      vertex 0 7.5 3
      vertex 6 7.5 3
    endloop
  endfacet
  facet normal -0 0 1
    outer loop
      vertex -1.06763 8.90839 3
      vertex 0 7.5 3
      vertex -0.0184793 10.0736 3
    endloop
  endfacet
  facet normal -0 0 1
    outer loop
      vertex -0.0184793 10.0736 3
      vertex 0 7.5 3
      vertex 1.25 10.9952 3
    endloop
  endfacet
  facet normal -0 0 1
    outer loop
      vertex 9 0.25 3
      vertex 11.0676 0.09161 3
      vertex 10 1.5 3
    endloop
  endfacet
  facet normal 0 0 1
    outer loop
      vertex 9 0.25 3
      vertex 10 1.5 3
      vertex 9 1.5 3
    endloop
  endfacet
  facet normal 0 0 1
    outer loop
      vertex 11.0676 0.09161 3
      vertex 9 0.25 3
      vertex 10.0185 -1.07359 3
    endloop
  endfacet
  facet normal 0 0 1
    outer loop
      vertex 9 0.25 3
      vertex 8.75 -1.99519 3
      vertex 10.0185 -1.07359 3
    endloop
  endfacet
  facet normal -0 0 1
    outer loop
      vertex 6 0.25 3
      vertex 8.75 -1.99519 3
      vertex 9 0.25 3
    endloop
  endfacet
  facet normal 0 0 1
    outer loop
      vertex 8.75 -1.99519 3
      vertex 6 0.25 3
      vertex 7.31763 -2.63292 3
    endloop
  endfacet
  facet normal 0 0 1
    outer loop
      vertex 7.31763 -2.63292 3
      vertex 6 0.25 3
      vertex 5.78396 -2.95891 3
    endloop
  endfacet
  facet normal 0 0 1
    outer loop
      vertex 10 7.5 3
      vertex 9 8.75 3
      vertex 9 7.5 3
    endloop
  endfacet
  facet normal -0.587785 0.809017 0
    outer loop
      vertex 1.25 10.9952 0
      vertex -0.0184793 10.0736 3
      vertex 1.25 10.9952 3
    endloop
  endfacet
  facet normal -0.587785 0.809017 0
    outer loop
      vertex -0.0184793 10.0736 3
      vertex 1.25 10.9952 0
      vertex -0.0184793 10.0736 0
    endloop
  endfacet
  facet normal -0.207912 0.978148 0
    outer loop
      vertex 4.21604 11.9589 0
      vertex 2.68237 11.6329 3
      vertex 4.21604 11.9589 3
    endloop
  endfacet
  facet normal -0.207912 0.978148 0
    outer loop
      vertex 2.68237 11.6329 3
      vertex 4.21604 11.9589 0
      vertex 2.68237 11.6329 0
    endloop
  endfacet
  facet normal 0.994522 -0.104529 0
    outer loop
      vertex 12.3361 2.94066 3
      vertex 12.5 4.5 0
      vertex 12.5 4.5 3
    endloop
  endfacet
  facet normal 0.994522 -0.104529 0
    outer loop
      vertex 12.5 4.5 0
      vertex 12.3361 2.94066 3
      vertex 12.3361 2.94066 0
    endloop
  endfacet
  facet normal 0.207912 -0.978148 0
    outer loop
      vertex 5.78396 -2.95891 0
      vertex 7.31763 -2.63292 3
      vertex 5.78396 -2.95891 3
    endloop
  endfacet
  facet normal 0.207912 -0.978148 0
    outer loop
      vertex 7.31763 -2.63292 3
      vertex 5.78396 -2.95891 0
      vertex 7.31763 -2.63292 0
    endloop
  endfacet
  facet normal 0.587785 -0.809017 0
    outer loop
      vertex 8.75 -1.99519 0
      vertex 10.0185 -1.07359 3
      vertex 8.75 -1.99519 3
    endloop
  endfacet
  facet normal 0.587785 -0.809017 0
    outer loop
      vertex 10.0185 -1.07359 3
      vertex 8.75 -1.99519 0
      vertex 10.0185 -1.07359 0
    endloop
  endfacet
  facet normal -0.406737 -0.913545 0
    outer loop
      vertex 1.25 -1.99519 0
      vertex 2.68237 -2.63292 3
      vertex 1.25 -1.99519 3
    endloop
  endfacet
  facet normal -0.406737 -0.913545 -0
    outer loop
      vertex 2.68237 -2.63292 3
      vertex 1.25 -1.99519 0
      vertex 2.68237 -2.63292 0
    endloop
  endfacet
  facet normal 0 -1 0
    outer loop
      vertex 4.21604 -2.95891 0
      vertex 5.78396 -2.95891 3
      vertex 4.21604 -2.95891 3
    endloop
  endfacet
  facet normal 0 -1 -0
    outer loop
      vertex 5.78396 -2.95891 3
      vertex 4.21604 -2.95891 0
      vertex 5.78396 -2.95891 0
    endloop
  endfacet
  facet normal -0.743145 -0.669131 0
    outer loop
      vertex -0.0184793 -1.07359 0
      vertex -1.06763 0.09161 3
      vertex -1.06763 0.09161 0
    endloop
  endfacet
  facet normal -0.743145 -0.669131 0
    outer loop
      vertex -1.06763 0.09161 3
      vertex -0.0184793 -1.07359 0
      vertex -0.0184793 -1.07359 3
    endloop
  endfacet
  facet normal -0.951057 -0.309017 0
    outer loop
      vertex -1.85159 1.44947 0
      vertex -2.33611 2.94066 3
      vertex -2.33611 2.94066 0
    endloop
  endfacet
  facet normal -0.951057 -0.309017 0
    outer loop
      vertex -2.33611 2.94066 3
      vertex -1.85159 1.44947 0
      vertex -1.85159 1.44947 3
    endloop
  endfacet
  facet normal -0.994522 -0.104529 0
    outer loop
      vertex -2.33611 2.94066 0
      vertex -2.5 4.5 3
      vertex -2.5 4.5 0
    endloop
  endfacet
  facet normal -0.994522 -0.104529 0
    outer loop
      vertex -2.5 4.5 3
      vertex -2.33611 2.94066 0
      vertex -2.33611 2.94066 3
    endloop
  endfacet
  facet normal 0.406737 -0.913545 0
    outer loop
      vertex 7.31763 -2.63292 0
      vertex 8.75 -1.99519 3
      vertex 7.31763 -2.63292 3
    endloop
  endfacet
  facet normal 0.406737 -0.913545 0
    outer loop
      vertex 8.75 -1.99519 3
      vertex 7.31763 -2.63292 0
      vertex 8.75 -1.99519 0
    endloop
  endfacet
  facet normal 0.951057 -0.309017 0
    outer loop
      vertex 11.8516 1.44947 3
      vertex 12.3361 2.94066 0
      vertex 12.3361 2.94066 3
    endloop
  endfacet
  facet normal 0.951057 -0.309017 0
    outer loop
      vertex 12.3361 2.94066 0
      vertex 11.8516 1.44947 3
      vertex 11.8516 1.44947 0
    endloop
  endfacet
  facet normal 0.866025 -0.5 0
    outer loop
      vertex 11.0676 0.09161 3
      vertex 11.8516 1.44947 0
      vertex 11.8516 1.44947 3
    endloop
  endfacet
  facet normal 0.866025 -0.5 0
    outer loop
      vertex 11.8516 1.44947 0
      vertex 11.0676 0.09161 3
      vertex 11.0676 0.09161 0
    endloop
  endfacet
  facet normal -0.207912 -0.978148 0
    outer loop
      vertex 2.68237 -2.63292 0
      vertex 4.21604 -2.95891 3
      vertex 2.68237 -2.63292 3
    endloop
  endfacet
  facet normal -0.207912 -0.978148 -0
    outer loop
      vertex 4.21604 -2.95891 3
      vertex 2.68237 -2.63292 0
      vertex 4.21604 -2.95891 0
    endloop
  endfacet
  facet normal -0.587786 -0.809017 0
    outer loop
      vertex -0.0184793 -1.07359 0
      vertex 1.25 -1.99519 3
      vertex -0.0184793 -1.07359 3
    endloop
  endfacet
  facet normal -0.587786 -0.809017 -0
    outer loop
      vertex 1.25 -1.99519 3
      vertex -0.0184793 -1.07359 0
      vertex 1.25 -1.99519 0
    endloop
  endfacet
  facet normal -0.866025 -0.5 0
    outer loop
      vertex -1.06763 0.09161 0
      vertex -1.85159 1.44947 3
      vertex -1.85159 1.44947 0
    endloop
  endfacet
  facet normal -0.866025 -0.5 0
    outer loop
      vertex -1.85159 1.44947 3
      vertex -1.06763 0.09161 0
      vertex -1.06763 0.09161 3
    endloop
  endfacet
  facet normal -1 0 0
    outer loop
      vertex 0 1.5 3
      vertex 0 7.5 5
      vertex 0 7.5 3
    endloop
  endfacet
  facet normal -1 -0 0
    outer loop
      vertex 0 7.5 5
      vertex 0 1.5 3
      vertex 0 1.5 5
    endloop
  endfacet
  facet normal 0 0 1
    outer loop
      vertex 6 7.5 5
      vertex 5.1 4.5 5
      vertex 6 1.5 5
    endloop
  endfacet
  facet normal 0 0 1
    outer loop
      vertex 6 7.5 5
      vertex 5.06504 4.83266 5
      vertex 5.1 4.5 5
    endloop
  endfacet
  facet normal 0 0 1
    outer loop
      vertex 6 7.5 5
      vertex 4.96167 5.15078 5
      vertex 5.06504 4.83266 5
    endloop
  endfacet
  facet normal 0 0 1
    outer loop
      vertex 6 7.5 5
      vertex 4.79443 5.44046 5
      vertex 4.96167 5.15078 5
    endloop
  endfacet
  facet normal 0 0 1
    outer loop
      vertex 6 7.5 5
      vertex 4.57061 5.68903 5
      vertex 4.79443 5.44046 5
    endloop
  endfacet
  facet normal 0 0 1
    outer loop
      vertex 6 7.5 5
      vertex 4.3 5.88564 5
      vertex 4.57061 5.68903 5
    endloop
  endfacet
  facet normal 0 0 1
    outer loop
      vertex 6 7.5 5
      vertex 3.99443 6.02169 5
      vertex 4.3 5.88564 5
    endloop
  endfacet
  facet normal 0 0 1
    outer loop
      vertex 6 7.5 5
      vertex 3.66724 6.09123 5
      vertex 3.99443 6.02169 5
    endloop
  endfacet
  facet normal 0 0 1
    outer loop
      vertex 6 7.5 5
      vertex 3.33275 6.09123 5
      vertex 3.66724 6.09123 5
    endloop
  endfacet
  facet normal -0 0 1
    outer loop
      vertex 0 7.5 5
      vertex 3.33275 6.09123 5
      vertex 6 7.5 5
    endloop
  endfacet
  facet normal 0 0 1
    outer loop
      vertex 3.33275 6.09123 5
      vertex 0 7.5 5
      vertex 3.00557 6.02169 5
    endloop
  endfacet
  facet normal 0 0 1
    outer loop
      vertex 1.93496 4.83266 5
      vertex 0 7.5 5
      vertex 1.9 4.5 5
    endloop
  endfacet
  facet normal 0 0 1
    outer loop
      vertex 2.03833 5.15078 5
      vertex 0 7.5 5
      vertex 1.93496 4.83266 5
    endloop
  endfacet
  facet normal 0 0 1
    outer loop
      vertex 2.20557 5.44046 5
      vertex 0 7.5 5
      vertex 2.03833 5.15078 5
    endloop
  endfacet
  facet normal 0 0 1
    outer loop
      vertex 2.42939 5.68903 5
      vertex 0 7.5 5
      vertex 2.20557 5.44046 5
    endloop
  endfacet
  facet normal 0 0 1
    outer loop
      vertex 2.7 5.88564 5
      vertex 0 7.5 5
      vertex 2.42939 5.68903 5
    endloop
  endfacet
  facet normal 0 0 1
    outer loop
      vertex 3.00557 6.02169 5
      vertex 0 7.5 5
      vertex 2.7 5.88564 5
    endloop
  endfacet
  facet normal -0 0 1
    outer loop
      vertex 5.06504 4.16734 5
      vertex 6 1.5 5
      vertex 5.1 4.5 5
    endloop
  endfacet
  facet normal -0 0 1
    outer loop
      vertex 4.96167 3.84922 5
      vertex 6 1.5 5
      vertex 5.06504 4.16734 5
    endloop
  endfacet
  facet normal -0 0 1
    outer loop
      vertex 4.79443 3.55954 5
      vertex 6 1.5 5
      vertex 4.96167 3.84922 5
    endloop
  endfacet
  facet normal -0 0 1
    outer loop
      vertex 4.57061 3.31097 5
      vertex 6 1.5 5
      vertex 4.79443 3.55954 5
    endloop
  endfacet
  facet normal -0 0 1
    outer loop
      vertex 4.3 3.11436 5
      vertex 6 1.5 5
      vertex 4.57061 3.31097 5
    endloop
  endfacet
  facet normal -0 0 1
    outer loop
      vertex 3.99443 2.97831 5
      vertex 6 1.5 5
      vertex 4.3 3.11436 5
    endloop
  endfacet
  facet normal -0 0 1
    outer loop
      vertex 3.66724 2.90876 5
      vertex 6 1.5 5
      vertex 3.99443 2.97831 5
    endloop
  endfacet
  facet normal -0 0 1
    outer loop
      vertex 3.33275 2.90876 5
      vertex 6 1.5 5
      vertex 3.66724 2.90876 5
    endloop
  endfacet
  facet normal 0 0 1
    outer loop
      vertex 0 1.5 5
      vertex 3.33275 2.90876 5
      vertex 3.00557 2.97831 5
    endloop
  endfacet
  facet normal 0 0 1
    outer loop
      vertex 0 1.5 5
      vertex 3.00557 2.97831 5
      vertex 2.7 3.11436 5
    endloop
  endfacet
  facet normal 0 0 1
    outer loop
      vertex 0 1.5 5
      vertex 1.9 4.5 5
      vertex 0 7.5 5
    endloop
  endfacet
  facet normal 0 0 1
    outer loop
      vertex 1.9 4.5 5
      vertex 0 1.5 5
      vertex 1.93496 4.16734 5
    endloop
  endfacet
  facet normal 0 0 1
    outer loop
      vertex 3.33275 2.90876 5
      vertex 0 1.5 5
      vertex 6 1.5 5
    endloop
  endfacet
  facet normal 0 0 1
    outer loop
      vertex 2.42939 3.31097 5
      vertex 0 1.5 5
      vertex 2.7 3.11436 5
    endloop
  endfacet
  facet normal 0 0 1
    outer loop
      vertex 2.20557 3.55954 5
      vertex 0 1.5 5
      vertex 2.42939 3.31097 5
    endloop
  endfacet
  facet normal 0 0 1
    outer loop
      vertex 2.03833 3.84922 5
      vertex 0 1.5 5
      vertex 2.20557 3.55954 5
    endloop
  endfacet
  facet normal 0 0 1
    outer loop
      vertex 1.93496 4.16734 5
      vertex 0 1.5 5
      vertex 2.03833 3.84922 5
    endloop
  endfacet
  facet normal 1 -0 0
    outer loop
      vertex 10 1.5 4
      vertex 10 7.5 3
      vertex 10 7.5 4
    endloop
  endfacet
  facet normal 1 0 0
    outer loop
      vertex 10 7.5 3
      vertex 10 1.5 4
      vertex 10 1.5 3
    endloop
  endfacet
  facet normal 0 -1 0
    outer loop
      vertex 0 1.5 3
      vertex 6 1.5 5
      vertex 0 1.5 5
    endloop
  endfacet
  facet normal 0 -1 -0
    outer loop
      vertex 6 1.5 5
      vertex 0 1.5 3
      vertex 6 1.5 3
    endloop
  endfacet
  facet normal 0 -1 0
    outer loop
      vertex 9 1.5 3
      vertex 10 1.5 4
      vertex 9 1.5 4
    endloop
  endfacet
  facet normal 0 -1 -0
    outer loop
      vertex 10 1.5 4
      vertex 9 1.5 3
      vertex 10 1.5 3
    endloop
  endfacet
  facet normal 0 1 -0
    outer loop
      vertex 6 7.5 3
      vertex 0 7.5 5
      vertex 6 7.5 5
    endloop
  endfacet
  facet normal 0 1 0
    outer loop
      vertex 0 7.5 5
      vertex 6 7.5 3
      vertex 0 7.5 3
    endloop
  endfacet
  facet normal 0 1 -0
    outer loop
      vertex 10 7.5 3
      vertex 9 7.5 4
      vertex 10 7.5 4
    endloop
  endfacet
  facet normal 0 1 0
    outer loop
      vertex 9 7.5 4
      vertex 10 7.5 3
      vertex 9 7.5 3
    endloop
  endfacet
  facet normal -0.994522 -0.104528 0
    outer loop
      vertex 5.1 4.5 0
      vertex 5.06504 4.83266 5
      vertex 5.06504 4.83266 0
    endloop
  endfacet
  facet normal -0.994522 -0.104528 0
    outer loop
      vertex 5.06504 4.83266 5
      vertex 5.1 4.5 0
      vertex 5.1 4.5 5
    endloop
  endfacet
  facet normal 0.207909 -0.978148 0
    outer loop
      vertex 3.00557 6.02169 0
      vertex 3.33275 6.09123 5
      vertex 3.00557 6.02169 5
    endloop
  endfacet
  facet normal 0.207909 -0.978148 0
    outer loop
      vertex 3.33275 6.09123 5
      vertex 3.00557 6.02169 0
      vertex 3.33275 6.09123 0
    endloop
  endfacet
  facet normal -0.207909 0.978148 0
    outer loop
      vertex 3.99443 2.97831 0
      vertex 3.66724 2.90876 5
      vertex 3.99443 2.97831 5
    endloop
  endfacet
  facet normal -0.207909 0.978148 0
    outer loop
      vertex 3.66724 2.90876 5
      vertex 3.99443 2.97831 0
      vertex 3.66724 2.90876 0
    endloop
  endfacet
  facet normal -0.587785 -0.809017 0
    outer loop
      vertex 4.3 5.88564 0
      vertex 4.57061 5.68903 5
      vertex 4.3 5.88564 5
    endloop
  endfacet
  facet normal -0.587785 -0.809017 -0
    outer loop
      vertex 4.57061 5.68903 5
      vertex 4.3 5.88564 0
      vertex 4.57061 5.68903 0
    endloop
  endfacet
  facet normal 0.743144 -0.669132 0
    outer loop
      vertex 2.20557 5.44046 5
      vertex 2.42939 5.68903 0
      vertex 2.42939 5.68903 5
    endloop
  endfacet
  facet normal 0.743144 -0.669132 0
    outer loop
      vertex 2.42939 5.68903 0
      vertex 2.20557 5.44046 5
      vertex 2.20557 5.44046 0
    endloop
  endfacet
  facet normal 0.587785 -0.809017 0
    outer loop
      vertex 2.42939 5.68903 0
      vertex 2.7 5.88564 5
      vertex 2.42939 5.68903 5
    endloop
  endfacet
  facet normal 0.587785 -0.809017 0
    outer loop
      vertex 2.7 5.88564 5
      vertex 2.42939 5.68903 0
      vertex 2.7 5.88564 0
    endloop
  endfacet
  facet normal -0.866027 -0.499998 0
    outer loop
      vertex 4.96167 5.15078 0
      vertex 4.79443 5.44046 5
      vertex 4.79443 5.44046 0
    endloop
  endfacet
  facet normal -0.866027 -0.499998 0
    outer loop
      vertex 4.79443 5.44046 5
      vertex 4.96167 5.15078 0
      vertex 4.96167 5.15078 5
    endloop
  endfacet
  facet normal -0.951056 -0.309018 0
    outer loop
      vertex 5.06504 4.83266 0
      vertex 4.96167 5.15078 5
      vertex 4.96167 5.15078 0
    endloop
  endfacet
  facet normal -0.951056 -0.309018 0
    outer loop
      vertex 4.96167 5.15078 5
      vertex 5.06504 4.83266 0
      vertex 5.06504 4.83266 5
    endloop
  endfacet
  facet normal -0.743144 -0.669132 0
    outer loop
      vertex 4.79443 5.44046 0
      vertex 4.57061 5.68903 5
      vertex 4.57061 5.68903 0
    endloop
  endfacet
  facet normal -0.743144 -0.669132 0
    outer loop
      vertex 4.57061 5.68903 5
      vertex 4.79443 5.44046 0
      vertex 4.79443 5.44046 5
    endloop
  endfacet
  facet normal -0.207909 -0.978148 0
    outer loop
      vertex 3.66724 6.09123 0
      vertex 3.99443 6.02169 5
      vertex 3.66724 6.09123 5
    endloop
  endfacet
  facet normal -0.207909 -0.978148 -0
    outer loop
      vertex 3.99443 6.02169 5
      vertex 3.66724 6.09123 0
      vertex 3.99443 6.02169 0
    endloop
  endfacet
  facet normal 0 -1 0
    outer loop
      vertex 3.33275 6.09123 0
      vertex 3.66724 6.09123 5
      vertex 3.33275 6.09123 5
    endloop
  endfacet
  facet normal 0 -1 -0
    outer loop
      vertex 3.66724 6.09123 5
      vertex 3.33275 6.09123 0
      vertex 3.66724 6.09123 0
    endloop
  endfacet
  facet normal -0.406738 -0.913545 0
    outer loop
      vertex 3.99443 6.02169 0
      vertex 4.3 5.88564 5
      vertex 3.99443 6.02169 5
    endloop
  endfacet
  facet normal -0.406738 -0.913545 -0
    outer loop
      vertex 4.3 5.88564 5
      vertex 3.99443 6.02169 0
      vertex 4.3 5.88564 0
    endloop
  endfacet
  facet normal 0.951056 -0.309018 0
    outer loop
      vertex 1.93496 4.83266 5
      vertex 2.03833 5.15078 0
      vertex 2.03833 5.15078 5
    endloop
  endfacet
  facet normal 0.951056 -0.309018 0
    outer loop
      vertex 2.03833 5.15078 0
      vertex 1.93496 4.83266 5
      vertex 1.93496 4.83266 0
    endloop
  endfacet
  facet normal 0.866027 -0.499998 0
    outer loop
      vertex 2.03833 5.15078 5
      vertex 2.20557 5.44046 0
      vertex 2.20557 5.44046 5
    endloop
  endfacet
  facet normal 0.866027 -0.499998 0
    outer loop
      vertex 2.20557 5.44046 0
      vertex 2.03833 5.15078 5
      vertex 2.03833 5.15078 0
    endloop
  endfacet
  facet normal 0.994522 -0.104528 0
    outer loop
      vertex 1.9 4.5 5
      vertex 1.93496 4.83266 0
      vertex 1.93496 4.83266 5
    endloop
  endfacet
  facet normal 0.994522 -0.104528 0
    outer loop
      vertex 1.93496 4.83266 0
      vertex 1.9 4.5 5
      vertex 1.9 4.5 0
    endloop
  endfacet
  facet normal 0.406738 -0.913545 0
    outer loop
      vertex 2.7 5.88564 0
      vertex 3.00557 6.02169 5
      vertex 2.7 5.88564 5
    endloop
  endfacet
  facet normal 0.406738 -0.913545 0
    outer loop
      vertex 3.00557 6.02169 5
      vertex 2.7 5.88564 0
      vertex 3.00557 6.02169 0
    endloop
  endfacet
  facet normal -0.994522 0.104528 0
    outer loop
      vertex 5.06504 4.16734 0
      vertex 5.1 4.5 5
      vertex 5.1 4.5 0
    endloop
  endfacet
  facet normal -0.994522 0.104528 0
    outer loop
      vertex 5.1 4.5 5
      vertex 5.06504 4.16734 0
      vertex 5.06504 4.16734 5
    endloop
  endfacet
  facet normal -0.743144 0.669132 0
    outer loop
      vertex 4.57061 3.31097 0
      vertex 4.79443 3.55954 5
      vertex 4.79443 3.55954 0
    endloop
  endfacet
  facet normal -0.743144 0.669132 0
    outer loop
      vertex 4.79443 3.55954 5
      vertex 4.57061 3.31097 0
      vertex 4.57061 3.31097 5
    endloop
  endfacet
  facet normal 0.994522 0.104528 0
    outer loop
      vertex 1.93496 4.16734 5
      vertex 1.9 4.5 0
      vertex 1.9 4.5 5
    endloop
  endfacet
  facet normal 0.994522 0.104528 0
    outer loop
      vertex 1.9 4.5 0
      vertex 1.93496 4.16734 5
      vertex 1.93496 4.16734 0
    endloop
  endfacet
  facet normal -0.866027 0.499998 0
    outer loop
      vertex 4.79443 3.55954 0
      vertex 4.96167 3.84922 5
      vertex 4.96167 3.84922 0
    endloop
  endfacet
  facet normal -0.866027 0.499998 0
    outer loop
      vertex 4.96167 3.84922 5
      vertex 4.79443 3.55954 0
      vertex 4.79443 3.55954 5
    endloop
  endfacet
  facet normal 0.406738 0.913545 -0
    outer loop
      vertex 3.00557 2.97831 0
      vertex 2.7 3.11436 5
      vertex 3.00557 2.97831 5
    endloop
  endfacet
  facet normal 0.406738 0.913545 0
    outer loop
      vertex 2.7 3.11436 5
      vertex 3.00557 2.97831 0
      vertex 2.7 3.11436 0
    endloop
  endfacet
  facet normal 0.743144 0.669132 0
    outer loop
      vertex 2.42939 3.31097 5
      vertex 2.20557 3.55954 0
      vertex 2.20557 3.55954 5
    endloop
  endfacet
  facet normal 0.743144 0.669132 0
    outer loop
      vertex 2.20557 3.55954 0
      vertex 2.42939 3.31097 5
      vertex 2.42939 3.31097 0
    endloop
  endfacet
  facet normal -0.951056 0.309018 0
    outer loop
      vertex 4.96167 3.84922 0
      vertex 5.06504 4.16734 5
      vertex 5.06504 4.16734 0
    endloop
  endfacet
  facet normal -0.951056 0.309018 0
    outer loop
      vertex 5.06504 4.16734 5
      vertex 4.96167 3.84922 0
      vertex 4.96167 3.84922 5
    endloop
  endfacet
  facet normal 0 1 -0
    outer loop
      vertex 3.66724 2.90876 0
      vertex 3.33275 2.90876 5
      vertex 3.66724 2.90876 5
    endloop
  endfacet
  facet normal 0 1 0
    outer loop
      vertex 3.33275 2.90876 5
      vertex 3.66724 2.90876 0
      vertex 3.33275 2.90876 0
    endloop
  endfacet
  facet normal 0.207909 0.978148 -0
    outer loop
      vertex 3.33275 2.90876 0
      vertex 3.00557 2.97831 5
      vertex 3.33275 2.90876 5
    endloop
  endfacet
  facet normal 0.207909 0.978148 0
    outer loop
      vertex 3.00557 2.97831 5
      vertex 3.33275 2.90876 0
      vertex 3.00557 2.97831 0
    endloop
  endfacet
  facet normal 0.587785 0.809017 -0
    outer loop
      vertex 2.7 3.11436 0
      vertex 2.42939 3.31097 5
      vertex 2.7 3.11436 5
    endloop
  endfacet
  facet normal 0.587785 0.809017 0
    outer loop
      vertex 2.42939 3.31097 5
      vertex 2.7 3.11436 0
      vertex 2.42939 3.31097 0
    endloop
  endfacet
  facet normal 0.866027 0.499998 0
    outer loop
      vertex 2.20557 3.55954 5
      vertex 2.03833 3.84922 0
      vertex 2.03833 3.84922 5
    endloop
  endfacet
  facet normal 0.866027 0.499998 0
    outer loop
      vertex 2.03833 3.84922 0
      vertex 2.20557 3.55954 5
      vertex 2.20557 3.55954 0
    endloop
  endfacet
  facet normal 0.951056 0.309018 0
    outer loop
      vertex 2.03833 3.84922 5
      vertex 1.93496 4.16734 0
      vertex 1.93496 4.16734 5
    endloop
  endfacet
  facet normal 0.951056 0.309018 0
    outer loop
      vertex 1.93496 4.16734 0
      vertex 2.03833 3.84922 5
      vertex 2.03833 3.84922 0
    endloop
  endfacet
  facet normal -0.587785 0.809017 0
    outer loop
      vertex 4.57061 3.31097 0
      vertex 4.3 3.11436 5
      vertex 4.57061 3.31097 5
    endloop
  endfacet
  facet normal -0.587785 0.809017 0
    outer loop
      vertex 4.3 3.11436 5
      vertex 4.57061 3.31097 0
      vertex 4.3 3.11436 0
    endloop
  endfacet
  facet normal -0.406738 0.913545 0
    outer loop
      vertex 4.3 3.11436 0
      vertex 3.99443 2.97831 5
      vertex 4.3 3.11436 5
    endloop
  endfacet
  facet normal -0.406738 0.913545 0
    outer loop
      vertex 3.99443 2.97831 5
      vertex 4.3 3.11436 0
      vertex 3.99443 2.97831 0
    endloop
  endfacet
  facet normal 1 0 0
    outer loop
      vertex 6 7.5 5
      vertex 6 7 4
      vertex 6 7.5 3
    endloop
  endfacet
  facet normal 1 0 0
    outer loop
      vertex 6 7.5 5
      vertex 6 2 4
      vertex 6 7 4
    endloop
  endfacet
  facet normal 1 -0 0
    outer loop
      vertex 6 1.5 5
      vertex 6 2 4
      vertex 6 7.5 5
    endloop
  endfacet
  facet normal 1 0 0
    outer loop
      vertex 6 1.5 3
      vertex 6 2 4
      vertex 6 1.5 5
    endloop
  endfacet
  facet normal 1 0 0
    outer loop
      vertex 6 2 4
      vertex 6 1.5 3
      vertex 6 2 0
    endloop
  endfacet
  facet normal 1 0 0
    outer loop
      vertex 6 0.25 0
      vertex 6 1.5 3
      vertex 6 0.25 3
    endloop
  endfacet
  facet normal 1 0 0
    outer loop
      vertex 6 1.5 3
      vertex 6 0.25 0
      vertex 6 2 0
    endloop
  endfacet
  facet normal 1 -0 0
    outer loop
      vertex 6 7.5 3
      vertex 6 8.75 0
      vertex 6 8.75 3
    endloop
  endfacet
  facet normal 1 0 0
    outer loop
      vertex 6 7 0
      vertex 6 7.5 3
      vertex 6 7 4
    endloop
  endfacet
  facet normal 1 0 0
    outer loop
      vertex 6 7.5 3
      vertex 6 7 0
      vertex 6 8.75 0
    endloop
  endfacet
  facet normal -1 0 0
    outer loop
      vertex 9 2 0
      vertex 9 1.5 3
      vertex 9 2 4
    endloop
  endfacet
  facet normal -1 0 0
    outer loop
      vertex 9 0.25 0
      vertex 9 1.5 3
      vertex 9 2 0
    endloop
  endfacet
  facet normal -1 -0 0
    outer loop
      vertex 9 1.5 3
      vertex 9 0.25 0
      vertex 9 0.25 3
    endloop
  endfacet
  facet normal -1 -0 0
    outer loop
      vertex 9 2 4
      vertex 9 1.5 3
      vertex 9 1.5 4
    endloop
  endfacet
  facet normal 0 1 -0
    outer loop
      vertex 9 0.25 0
      vertex 6 0.25 3
      vertex 9 0.25 3
    endloop
  endfacet
  facet normal 0 1 0
    outer loop
      vertex 6 0.25 3
      vertex 9 0.25 0
      vertex 6 0.25 0
    endloop
  endfacet
  facet normal 0 -1 0
    outer loop
      vertex 6 2 0
      vertex 9 2 4
      vertex 6 2 4
    endloop
  endfacet
  facet normal 0 -1 -0
    outer loop
      vertex 9 2 4
      vertex 6 2 0
      vertex 9 2 0
    endloop
  endfacet
  facet normal -1 0 0
    outer loop
      vertex 9 8.75 0
      vertex 9 7.5 3
      vertex 9 8.75 3
    endloop
  endfacet
  facet normal -1 0 0
    outer loop
      vertex 9 7 0
      vertex 9 7.5 3
      vertex 9 8.75 0
    endloop
  endfacet
  facet normal -1 0 0
    outer loop
      vertex 9 7 4
      vertex 9 7.5 3
      vertex 9 7 0
    endloop
  endfacet
  facet normal -1 0 0
    outer loop
      vertex 9 7.5 3
      vertex 9 7 4
      vertex 9 7.5 4
    endloop
  endfacet
  facet normal 0 1 -0
    outer loop
      vertex 9 7 0
      vertex 6 7 4
      vertex 9 7 4
    endloop
  endfacet
  facet normal 0 1 0
    outer loop
      vertex 6 7 4
      vertex 9 7 0
      vertex 6 7 0
    endloop
  endfacet
  facet normal 0 -1 0
    outer loop
      vertex 6 8.75 0
      vertex 9 8.75 3
      vertex 6 8.75 3
    endloop
  endfacet
  facet normal 0 -1 -0
    outer loop
      vertex 9 8.75 3
      vertex 6 8.75 0
      vertex 9 8.75 0
    endloop
  endfacet
  facet normal -0 0 1
    outer loop
      vertex 6 7 4
      vertex 9 2 4
      vertex 9 7 4
    endloop
  endfacet
  facet normal 0 0 1
    outer loop
      vertex 9 2 4
      vertex 6 7 4
      vertex 6 2 4
    endloop
  endfacet
  facet normal 0 0 1
    outer loop
      vertex 9 7 4
      vertex 10 7.5 4
      vertex 9 7.5 4
    endloop
  endfacet
  facet normal 0 0 1
    outer loop
      vertex 10 7.5 4
      vertex 9 7 4
      vertex 10 1.5 4
    endloop
  endfacet
  facet normal -0 0 1
    outer loop
      vertex 9 2 4
      vertex 10 1.5 4
      vertex 9 7 4
    endloop
  endfacet
  facet normal 0 0 1
    outer loop
      vertex 10 1.5 4
      vertex 9 2 4
      vertex 9 1.5 4
    endloop
  endfacet
endsolid OpenSCAD_Model
