solid OpenSCAD_Model
  facet normal -1 0 0
    outer loop
      vertex -5.25 -3.75 -6
      vertex -5.25 3.75 6
      vertex -5.25 3.75 -6
    endloop
  endfacet
  facet normal -1 -0 0
    outer loop
      vertex -5.25 3.75 6
      vertex -5.25 -3.75 -6
      vertex -5.25 -3.75 6
    endloop
  endfacet
  facet normal 0 0 1
    outer loop
      vertex 5.25 3.75 6
      vertex 3.25 1.75 6
      vertex 5.25 -3.75 6
    endloop
  endfacet
  facet normal 0 0 1
    outer loop
      vertex 5.25 3.75 6
      vertex -3.25 1.75 6
      vertex 3.25 1.75 6
    endloop
  endfacet
  facet normal 0 0 1
    outer loop
      vertex -3.25 1.75 6
      vertex -5.25 3.75 6
      vertex -3.25 -1.75 6
    endloop
  endfacet
  facet normal -0 0 1
    outer loop
      vertex -5.25 3.75 6
      vertex -3.25 1.75 6
      vertex 5.25 3.75 6
    endloop
  endfacet
  facet normal -0 0 1
    outer loop
      vertex 3.25 -1.75 6
      vertex 5.25 -3.75 6
      vertex 3.25 1.75 6
    endloop
  endfacet
  facet normal -0 0 1
    outer loop
      vertex -3.25 -1.75 6
      vertex 5.25 -3.75 6
      vertex 3.25 -1.75 6
    endloop
  endfacet
  facet normal 0 0 1
    outer loop
      vertex -3.25 -1.75 6
      vertex -5.25 -3.75 6
      vertex 5.25 -3.75 6
    endloop
  endfacet
  facet normal 0 0 1
    outer loop
      vertex -5.25 -3.75 6
      vertex -3.25 -1.75 6
      vertex -5.25 3.75 6
    endloop
  endfacet
  facet normal 1 -0 0
    outer loop
      vertex 5.25 -3.75 6
      vertex 5.25 3.75 -6
      vertex 5.25 3.75 6
    endloop
  endfacet
  facet normal 1 0 0
    outer loop
      vertex 5.25 3.75 -6
      vertex 5.25 -3.75 6
      vertex 5.25 -3.75 -6
    endloop
  endfacet
  facet normal 0 1 -0
    outer loop
      vertex 5.25 3.75 -6
      vertex -5.25 3.75 6
      vertex 5.25 3.75 6
    endloop
  endfacet
  facet normal 0 1 0
    outer loop
      vertex -5.25 3.75 6
      vertex 5.25 3.75 -6
      vertex -5.25 3.75 -6
    endloop
  endfacet
  facet normal 0 0 -1
    outer loop
      vertex 5.25 -3.75 -6
      vertex 3.25 -1.75 -6
      vertex 5.25 3.75 -6
    endloop
  endfacet
  facet normal 0 0 -1
    outer loop
      vertex 5.25 -3.75 -6
      vertex -3.25 -1.75 -6
      vertex 3.25 -1.75 -6
    endloop
  endfacet
  facet normal -0 0 -1
    outer loop
      vertex -3.25 -1.75 -6
      vertex -5.25 -3.75 -6
      vertex -3.25 1.75 -6
    endloop
  endfacet
  facet normal 0 0 -1
    outer loop
      vertex -5.25 -3.75 -6
      vertex -3.25 -1.75 -6
      vertex 5.25 -3.75 -6
    endloop
  endfacet
  facet normal 0 0 -1
    outer loop
      vertex 3.25 1.75 -6
      vertex 5.25 3.75 -6
      vertex 3.25 -1.75 -6
    endloop
  endfacet
  facet normal 0 0 -1
    outer loop
      vertex -3.25 1.75 -6
      vertex 5.25 3.75 -6
      vertex 3.25 1.75 -6
    endloop
  endfacet
  facet normal 0 0 -1
    outer loop
      vertex -3.25 1.75 -6
      vertex -5.25 3.75 -6
      vertex 5.25 3.75 -6
    endloop
  endfacet
  facet normal 0 0 -1
    outer loop
      vertex -5.25 3.75 -6
      vertex -3.25 1.75 -6
      vertex -5.25 -3.75 -6
    endloop
  endfacet
  facet normal 0 -1 0
    outer loop
      vertex -5.25 -3.75 -6
      vertex 5.25 -3.75 6
      vertex -5.25 -3.75 6
    endloop
  endfacet
  facet normal 0 -1 -0
    outer loop
      vertex 5.25 -3.75 6
      vertex -5.25 -3.75 -6
      vertex 5.25 -3.75 -6
    endloop
  endfacet
  facet normal 1 -0 0
    outer loop
      vertex -3.25 -1.75 6
      vertex -3.25 1.75 -6
      vertex -3.25 1.75 6
    endloop
  endfacet
  facet normal 1 0 0
    outer loop
      vertex -3.25 1.75 -6
      vertex -3.25 -1.75 6
      vertex -3.25 -1.75 -6
    endloop
  endfacet
  facet normal -1 0 0
    outer loop
      vertex 3.25 -1.75 -6
      vertex 3.25 1.75 6
      vertex 3.25 1.75 -6
    endloop
  endfacet
  facet normal -1 -0 0
    outer loop
      vertex 3.25 1.75 6
      vertex 3.25 -1.75 -6
      vertex 3.25 -1.75 6
    endloop
  endfacet
  facet normal 0 -1 0
    outer loop
      vertex -3.25 1.75 -6
      vertex 3.25 1.75 6
      vertex -3.25 1.75 6
    endloop
  endfacet
  facet normal 0 -1 -0
    outer loop
      vertex 3.25 1.75 6
      vertex -3.25 1.75 -6
      vertex 3.25 1.75 -6
    endloop
  endfacet
  facet normal 0 1 -0
    outer loop
      vertex 3.25 -1.75 -6
      vertex -3.25 -1.75 6
      vertex 3.25 -1.75 6
    endloop
  endfacet
  facet normal 0 1 0
    outer loop
      vertex -3.25 -1.75 6
      vertex 3.25 -1.75 -6
      vertex -3.25 -1.75 -6
    endloop
  endfacet
endsolid OpenSCAD_Model
