solid OpenSCAD_Model
  facet normal -1 0 0
    outer loop
      vertex 0 0 0
      vertex 0 0 5.75
      vertex 0 9 0
    endloop
  endfacet
  facet normal -1 0 0
    outer loop
      vertex 0 9 0
      vertex 0 0 5.75
      vertex 0 9 5.75
    endloop
  endfacet
  facet normal 0 -1 0
    outer loop
      vertex 0 0 5.75
      vertex 0 0 0
      vertex 16 0 0
    endloop
  endfacet
  facet normal 0 -1 0
    outer loop
      vertex 12 0 3
      vertex 0 0 5.75
      vertex 16 0 0
    endloop
  endfacet
  facet normal 0 -1 0
    outer loop
      vertex 16 0 3
      vertex 12 0 3
      vertex 16 0 0
    endloop
  endfacet
  facet normal 0 -1 0
    outer loop
      vertex 12 0 3
      vertex 12 0 5.75
      vertex 0 0 5.75
    endloop
  endfacet
  facet normal 0 0 -1
    outer loop
      vertex 7.96587 6.23867 0
      vertex 0 9 0
      vertex 16 9 0
    endloop
  endfacet
  facet normal 0 0 -1
    outer loop
      vertex 0 0 0
      vertex 0 9 0
      vertex 5.7 4.5 0
    endloop
  endfacet
  facet normal 0 0 -1
    outer loop
      vertex 0 0 0
      vertex 5.7 4.5 0
      vertex 5.76133 4.03413 0
    endloop
  endfacet
  facet normal 0 0 -1
    outer loop
      vertex 0 0 0
      vertex 5.76133 4.03413 0
      vertex 5.94115 3.6 0
    endloop
  endfacet
  facet normal 0 0 -1
    outer loop
      vertex 0 0 0
      vertex 5.94115 3.6 0
      vertex 6.22721 3.22721 0
    endloop
  endfacet
  facet normal 0 0 -1
    outer loop
      vertex 0 0 0
      vertex 6.22721 3.22721 0
      vertex 6.6 2.94115 0
    endloop
  endfacet
  facet normal 0 0 -1
    outer loop
      vertex 0 0 0
      vertex 6.6 2.94115 0
      vertex 7.03413 2.76133 0
    endloop
  endfacet
  facet normal 0 0 -1
    outer loop
      vertex 0 0 0
      vertex 7.03413 2.76133 0
      vertex 16 0 0
    endloop
  endfacet
  facet normal 0 0 -1
    outer loop
      vertex 7.96587 2.76133 0
      vertex 16 0 0
      vertex 7.5 2.7 0
    endloop
  endfacet
  facet normal 0 0 -1
    outer loop
      vertex 8.4 2.94115 0
      vertex 16 0 0
      vertex 7.96587 2.76133 0
    endloop
  endfacet
  facet normal 0 0 -1
    outer loop
      vertex 8.77279 3.22721 0
      vertex 16 0 0
      vertex 8.4 2.94115 0
    endloop
  endfacet
  facet normal 0 0 -1
    outer loop
      vertex 9.23867 4.03413 0
      vertex 16 0 0
      vertex 9.05885 3.6 0
    endloop
  endfacet
  facet normal 0 0 -1
    outer loop
      vertex 5.76133 4.96587 0
      vertex 0 9 0
      vertex 5.94115 5.4 0
    endloop
  endfacet
  facet normal 0 0 -1
    outer loop
      vertex 8.77279 3.22721 0
      vertex 9.05885 3.6 0
      vertex 16 0 0
    endloop
  endfacet
  facet normal 0 0 -1
    outer loop
      vertex 7.5 6.3 0
      vertex 0 9 0
      vertex 7.96587 6.23867 0
    endloop
  endfacet
  facet normal 0 0 -1
    outer loop
      vertex 16 0 0
      vertex 9.23867 4.03413 0
      vertex 16 9 0
    endloop
  endfacet
  facet normal 0 0 -1
    outer loop
      vertex 5.94115 5.4 0
      vertex 0 9 0
      vertex 6.22721 5.77279 0
    endloop
  endfacet
  facet normal 0 0 -1
    outer loop
      vertex 9.23867 4.03413 0
      vertex 9.3 4.5 0
      vertex 16 9 0
    endloop
  endfacet
  facet normal 0 0 -1
    outer loop
      vertex 6.22721 5.77279 0
      vertex 0 9 0
      vertex 6.6 6.05885 0
    endloop
  endfacet
  facet normal 0 0 -1
    outer loop
      vertex 9.3 4.5 0
      vertex 9.23867 4.96587 0
      vertex 16 9 0
    endloop
  endfacet
  facet normal 0 0 -1
    outer loop
      vertex 9.23867 4.96587 0
      vertex 9.05885 5.4 0
      vertex 16 9 0
    endloop
  endfacet
  facet normal 0 0 -1
    outer loop
      vertex 6.6 6.05885 0
      vertex 0 9 0
      vertex 7.03413 6.23867 0
    endloop
  endfacet
  facet normal 0 0 -1
    outer loop
      vertex 9.05885 5.4 0
      vertex 8.77279 5.77279 0
      vertex 16 9 0
    endloop
  endfacet
  facet normal 0 0 -1
    outer loop
      vertex 7.03413 6.23867 0
      vertex 0 9 0
      vertex 7.5 6.3 0
    endloop
  endfacet
  facet normal 0 0 -1
    outer loop
      vertex 8.77279 5.77279 0
      vertex 8.4 6.05885 0
      vertex 16 9 0
    endloop
  endfacet
  facet normal 0 0 -1
    outer loop
      vertex 8.4 6.05885 0
      vertex 7.96587 6.23867 0
      vertex 16 9 0
    endloop
  endfacet
  facet normal 0 0 -1
    outer loop
      vertex 5.7 4.5 0
      vertex 0 9 0
      vertex 5.76133 4.96587 0
    endloop
  endfacet
  facet normal 0 0 -1
    outer loop
      vertex 7.5 2.7 0
      vertex 16 0 0
      vertex 7.03413 2.76133 0
    endloop
  endfacet
  facet normal 0 1 0
    outer loop
      vertex 0 9 0
      vertex 0 9 5.75
      vertex 16 9 0
    endloop
  endfacet
  facet normal 0 1 0
    outer loop
      vertex 8.90876 9 3
      vertex 0 9 5.75
      vertex 8.90876 9 5.75
    endloop
  endfacet
  facet normal 0 1 0
    outer loop
      vertex 16 9 0
      vertex 0 9 5.75
      vertex 8.90876 9 3
    endloop
  endfacet
  facet normal 0 1 0
    outer loop
      vertex 16 9 3
      vertex 16 9 0
      vertex 8.90876 9 3
    endloop
  endfacet
  facet normal 0 0 1
    outer loop
      vertex 7.5 2.7 5.75
      vertex 0 0 5.75
      vertex 12 0 5.75
    endloop
  endfacet
  facet normal 0 0 1
    outer loop
      vertex 11.0902 6.87785 5.75
      vertex 0 9 5.75
      vertex 12 5.30198 5.75
    endloop
  endfacet
  facet normal 0 0 1
    outer loop
      vertex 9.69131 8.43145 5.75
      vertex 0 9 5.75
      vertex 11.0902 6.87785 5.75
    endloop
  endfacet
  facet normal 0 0 1
    outer loop
      vertex 8.90876 9 5.75
      vertex 0 9 5.75
      vertex 9.69131 8.43145 5.75
    endloop
  endfacet
  facet normal 0 0 1
    outer loop
      vertex 0 9 5.75
      vertex 0 0 5.75
      vertex 5.76133 4.03413 5.75
    endloop
  endfacet
  facet normal 0 0 1
    outer loop
      vertex 7.96587 6.23867 5.75
      vertex 8.4 6.05885 5.75
      vertex 12 5.30198 5.75
    endloop
  endfacet
  facet normal 0 0 1
    outer loop
      vertex 0 9 5.75
      vertex 5.76133 4.03413 5.75
      vertex 5.7 4.5 5.75
    endloop
  endfacet
  facet normal 0 0 1
    outer loop
      vertex 5.94115 5.4 5.75
      vertex 0 9 5.75
      vertex 5.76133 4.96587 5.75
    endloop
  endfacet
  facet normal 0 0 1
    outer loop
      vertex 6.22721 5.77279 5.75
      vertex 0 9 5.75
      vertex 5.94115 5.4 5.75
    endloop
  endfacet
  facet normal 0 0 1
    outer loop
      vertex 6.6 6.05885 5.75
      vertex 0 9 5.75
      vertex 6.22721 5.77279 5.75
    endloop
  endfacet
  facet normal 0 0 1
    outer loop
      vertex 7.03413 6.23867 5.75
      vertex 0 9 5.75
      vertex 6.6 6.05885 5.75
    endloop
  endfacet
  facet normal 0 0 1
    outer loop
      vertex 7.5 6.3 5.75
      vertex 0 9 5.75
      vertex 7.03413 6.23867 5.75
    endloop
  endfacet
  facet normal 0 0 1
    outer loop
      vertex 7.96587 6.23867 5.75
      vertex 0 9 5.75
      vertex 7.5 6.3 5.75
    endloop
  endfacet
  facet normal 0 0 1
    outer loop
      vertex 8.4 6.05885 5.75
      vertex 8.77279 5.77279 5.75
      vertex 12 5.30198 5.75
    endloop
  endfacet
  facet normal 0 0 1
    outer loop
      vertex 12 5.30198 5.75
      vertex 0 9 5.75
      vertex 7.96587 6.23867 5.75
    endloop
  endfacet
  facet normal 0 0 1
    outer loop
      vertex 9.05885 5.4 5.75
      vertex 9.23867 4.96587 5.75
      vertex 12 5.30198 5.75
    endloop
  endfacet
  facet normal 0 0 1
    outer loop
      vertex 8.4 2.94115 5.75
      vertex 7.96587 2.76133 5.75
      vertex 12 0 5.75
    endloop
  endfacet
  facet normal 0 0 1
    outer loop
      vertex 12 5.30198 5.75
      vertex 9.23867 4.96587 5.75
      vertex 12 0 5.75
    endloop
  endfacet
  facet normal 0 0 1
    outer loop
      vertex 9.23867 4.96587 5.75
      vertex 9.3 4.5 5.75
      vertex 12 0 5.75
    endloop
  endfacet
  facet normal 0 0 1
    outer loop
      vertex 9.3 4.5 5.75
      vertex 9.23867 4.03413 5.75
      vertex 12 0 5.75
    endloop
  endfacet
  facet normal 0 0 1
    outer loop
      vertex 9.23867 4.03413 5.75
      vertex 9.05885 3.6 5.75
      vertex 12 0 5.75
    endloop
  endfacet
  facet normal 0 0 1
    outer loop
      vertex 9.05885 3.6 5.75
      vertex 8.77279 3.22721 5.75
      vertex 12 0 5.75
    endloop
  endfacet
  facet normal 0 0 1
    outer loop
      vertex 8.77279 3.22721 5.75
      vertex 8.4 2.94115 5.75
      vertex 12 0 5.75
    endloop
  endfacet
  facet normal 0 0 1
    outer loop
      vertex 7.03413 2.76133 5.75
      vertex 0 0 5.75
      vertex 7.5 2.7 5.75
    endloop
  endfacet
  facet normal 0 0 1
    outer loop
      vertex 6.6 2.94115 5.75
      vertex 0 0 5.75
      vertex 7.03413 2.76133 5.75
    endloop
  endfacet
  facet normal 0 0 1
    outer loop
      vertex 6.22721 3.22721 5.75
      vertex 0 0 5.75
      vertex 6.6 2.94115 5.75
    endloop
  endfacet
  facet normal 0 0 1
    outer loop
      vertex 5.94115 3.6 5.75
      vertex 0 0 5.75
      vertex 6.22721 3.22721 5.75
    endloop
  endfacet
  facet normal 0 0 1
    outer loop
      vertex 5.76133 4.03413 5.75
      vertex 0 0 5.75
      vertex 5.94115 3.6 5.75
    endloop
  endfacet
  facet normal 0 0 1
    outer loop
      vertex 7.96587 2.76133 5.75
      vertex 7.5 2.7 5.75
      vertex 12 0 5.75
    endloop
  endfacet
  facet normal 0 0 1
    outer loop
      vertex 5.7 4.5 5.75
      vertex 5.76133 4.96587 5.75
      vertex 0 9 5.75
    endloop
  endfacet
  facet normal 0 0 1
    outer loop
      vertex 8.77279 5.77279 5.75
      vertex 9.05885 5.4 5.75
      vertex 12 5.30198 5.75
    endloop
  endfacet
  facet normal 1 0 0
    outer loop
      vertex 12 0 5.75
      vertex 12 0 3
      vertex 12 5.30198 3
    endloop
  endfacet
  facet normal 1 0 0
    outer loop
      vertex 12 5.30198 5.75
      vertex 12 0 5.75
      vertex 12 5.30198 3
    endloop
  endfacet
  facet normal 0 0 1
    outer loop
      vertex 12 5.30198 3
      vertex 12 0 3
      vertex 16 9 3
    endloop
  endfacet
  facet normal 0 0 1
    outer loop
      vertex 16 9 3
      vertex 8.90876 9 3
      vertex 9.69131 8.43145 3
    endloop
  endfacet
  facet normal 0 0 1
    outer loop
      vertex 11.0902 6.87785 3
      vertex 16 9 3
      vertex 9.69131 8.43145 3
    endloop
  endfacet
  facet normal 0 0 1
    outer loop
      vertex 11.0902 6.87785 3
      vertex 12 5.30198 3
      vertex 16 9 3
    endloop
  endfacet
  facet normal 0 0 1
    outer loop
      vertex 12 0 3
      vertex 16 0 3
      vertex 16 9 3
    endloop
  endfacet
  facet normal 1 0 0
    outer loop
      vertex 16 0 3
      vertex 16 0 0
      vertex 16 9 0
    endloop
  endfacet
  facet normal 1 0 0
    outer loop
      vertex 16 9 3
      vertex 16 0 3
      vertex 16 9 0
    endloop
  endfacet
  facet normal 0.991445 0.130527 0
    outer loop
      vertex 5.7 4.5 5.75
      vertex 5.76133 4.03413 5.75
      vertex 5.76133 4.03413 0
    endloop
  endfacet
  facet normal 0.991445 0.130527 0
    outer loop
      vertex 5.7 4.5 0
      vertex 5.7 4.5 5.75
      vertex 5.76133 4.03413 0
    endloop
  endfacet
  facet normal 0.991445 -0.130527 0
    outer loop
      vertex 5.76133 4.96587 0
      vertex 5.76133 4.96587 5.75
      vertex 5.7 4.5 5.75
    endloop
  endfacet
  facet normal 0.991445 -0.130527 0
    outer loop
      vertex 5.7 4.5 0
      vertex 5.76133 4.96587 0
      vertex 5.7 4.5 5.75
    endloop
  endfacet
  facet normal 0.92388 -0.382682 0
    outer loop
      vertex 5.94115 5.4 0
      vertex 5.94115 5.4 5.75
      vertex 5.76133 4.96587 5.75
    endloop
  endfacet
  facet normal 0.92388 -0.382682 0
    outer loop
      vertex 5.76133 4.96587 0
      vertex 5.94115 5.4 0
      vertex 5.76133 4.96587 5.75
    endloop
  endfacet
  facet normal 0.793353 -0.608762 0
    outer loop
      vertex 6.22721 5.77279 0
      vertex 6.22721 5.77279 5.75
      vertex 5.94115 5.4 5.75
    endloop
  endfacet
  facet normal 0.793353 -0.608762 0
    outer loop
      vertex 5.94115 5.4 0
      vertex 6.22721 5.77279 0
      vertex 5.94115 5.4 5.75
    endloop
  endfacet
  facet normal 0.608762 -0.793353 0
    outer loop
      vertex 6.6 6.05885 0
      vertex 6.6 6.05885 5.75
      vertex 6.22721 5.77279 5.75
    endloop
  endfacet
  facet normal 0.608762 -0.793353 0
    outer loop
      vertex 6.22721 5.77279 0
      vertex 6.6 6.05885 0
      vertex 6.22721 5.77279 5.75
    endloop
  endfacet
  facet normal 0.382682 -0.92388 0
    outer loop
      vertex 7.03413 6.23867 0
      vertex 7.03413 6.23867 5.75
      vertex 6.6 6.05885 5.75
    endloop
  endfacet
  facet normal 0.382682 -0.92388 0
    outer loop
      vertex 6.6 6.05885 0
      vertex 7.03413 6.23867 0
      vertex 6.6 6.05885 5.75
    endloop
  endfacet
  facet normal 0.130527 -0.991445 0
    outer loop
      vertex 7.5 6.3 0
      vertex 7.5 6.3 5.75
      vertex 7.03413 6.23867 5.75
    endloop
  endfacet
  facet normal 0.130527 -0.991445 0
    outer loop
      vertex 7.03413 6.23867 0
      vertex 7.5 6.3 0
      vertex 7.03413 6.23867 5.75
    endloop
  endfacet
  facet normal -0.130527 -0.991445 0
    outer loop
      vertex 7.96587 6.23867 0
      vertex 7.96587 6.23867 5.75
      vertex 7.5 6.3 5.75
    endloop
  endfacet
  facet normal -0.130527 -0.991445 0
    outer loop
      vertex 7.5 6.3 0
      vertex 7.96587 6.23867 0
      vertex 7.5 6.3 5.75
    endloop
  endfacet
  facet normal -0.382682 -0.92388 0
    outer loop
      vertex 8.4 6.05885 0
      vertex 8.4 6.05885 5.75
      vertex 7.96587 6.23867 5.75
    endloop
  endfacet
  facet normal -0.382682 -0.92388 0
    outer loop
      vertex 7.96587 6.23867 0
      vertex 8.4 6.05885 0
      vertex 7.96587 6.23867 5.75
    endloop
  endfacet
  facet normal -0.608762 -0.793353 0
    outer loop
      vertex 8.77279 5.77279 0
      vertex 8.77279 5.77279 5.75
      vertex 8.4 6.05885 5.75
    endloop
  endfacet
  facet normal -0.608762 -0.793353 0
    outer loop
      vertex 8.4 6.05885 0
      vertex 8.77279 5.77279 0
      vertex 8.4 6.05885 5.75
    endloop
  endfacet
  facet normal -0.793353 -0.608762 0
    outer loop
      vertex 9.05885 5.4 5.75
      vertex 8.77279 5.77279 5.75
      vertex 9.05885 5.4 0
    endloop
  endfacet
  facet normal -0.793353 -0.608762 0
    outer loop
      vertex 9.05885 5.4 0
      vertex 8.77279 5.77279 5.75
      vertex 8.77279 5.77279 0
    endloop
  endfacet
  facet normal -0.92388 -0.382682 0
    outer loop
      vertex 9.23867 4.96587 5.75
      vertex 9.05885 5.4 5.75
      vertex 9.23867 4.96587 0
    endloop
  endfacet
  facet normal -0.92388 -0.382682 0
    outer loop
      vertex 9.23867 4.96587 0
      vertex 9.05885 5.4 5.75
      vertex 9.05885 5.4 0
    endloop
  endfacet
  facet normal -0.991445 -0.130527 0
    outer loop
      vertex 9.3 4.5 5.75
      vertex 9.23867 4.96587 5.75
      vertex 9.3 4.5 0
    endloop
  endfacet
  facet normal -0.991445 -0.130527 0
    outer loop
      vertex 9.3 4.5 0
      vertex 9.23867 4.96587 5.75
      vertex 9.23867 4.96587 0
    endloop
  endfacet
  facet normal -0.991445 0.130527 0
    outer loop
      vertex 9.3 4.5 5.75
      vertex 9.3 4.5 0
      vertex 9.23867 4.03413 5.75
    endloop
  endfacet
  facet normal -0.991445 0.130527 0
    outer loop
      vertex 9.23867 4.03413 5.75
      vertex 9.3 4.5 0
      vertex 9.23867 4.03413 0
    endloop
  endfacet
  facet normal -0.92388 0.382682 0
    outer loop
      vertex 9.23867 4.03413 5.75
      vertex 9.23867 4.03413 0
      vertex 9.05885 3.6 5.75
    endloop
  endfacet
  facet normal -0.92388 0.382682 0
    outer loop
      vertex 9.05885 3.6 5.75
      vertex 9.23867 4.03413 0
      vertex 9.05885 3.6 0
    endloop
  endfacet
  facet normal -0.793353 0.608762 0
    outer loop
      vertex 9.05885 3.6 5.75
      vertex 9.05885 3.6 0
      vertex 8.77279 3.22721 5.75
    endloop
  endfacet
  facet normal -0.793353 0.608762 0
    outer loop
      vertex 8.77279 3.22721 5.75
      vertex 9.05885 3.6 0
      vertex 8.77279 3.22721 0
    endloop
  endfacet
  facet normal -0.608762 0.793353 0
    outer loop
      vertex 8.77279 3.22721 5.75
      vertex 8.77279 3.22721 0
      vertex 8.4 2.94115 5.75
    endloop
  endfacet
  facet normal -0.608762 0.793353 0
    outer loop
      vertex 8.4 2.94115 5.75
      vertex 8.77279 3.22721 0
      vertex 8.4 2.94115 0
    endloop
  endfacet
  facet normal -0.382682 0.92388 0
    outer loop
      vertex 8.4 2.94115 5.75
      vertex 8.4 2.94115 0
      vertex 7.96587 2.76133 5.75
    endloop
  endfacet
  facet normal -0.382682 0.92388 0
    outer loop
      vertex 7.96587 2.76133 5.75
      vertex 8.4 2.94115 0
      vertex 7.96587 2.76133 0
    endloop
  endfacet
  facet normal -0.130527 0.991445 0
    outer loop
      vertex 7.96587 2.76133 5.75
      vertex 7.96587 2.76133 0
      vertex 7.5 2.7 5.75
    endloop
  endfacet
  facet normal -0.130527 0.991445 0
    outer loop
      vertex 7.5 2.7 5.75
      vertex 7.96587 2.76133 0
      vertex 7.5 2.7 0
    endloop
  endfacet
  facet normal 0.130527 0.991445 0
    outer loop
      vertex 7.5 2.7 5.75
      vertex 7.5 2.7 0
      vertex 7.03413 2.76133 5.75
    endloop
  endfacet
  facet normal 0.130527 0.991445 0
    outer loop
      vertex 7.03413 2.76133 5.75
      vertex 7.5 2.7 0
      vertex 7.03413 2.76133 0
    endloop
  endfacet
  facet normal 0.382682 0.92388 0
    outer loop
      vertex 7.03413 2.76133 5.75
      vertex 7.03413 2.76133 0
      vertex 6.6 2.94115 5.75
    endloop
  endfacet
  facet normal 0.382682 0.92388 0
    outer loop
      vertex 6.6 2.94115 5.75
      vertex 7.03413 2.76133 0
      vertex 6.6 2.94115 0
    endloop
  endfacet
  facet normal 0.608762 0.793353 0
    outer loop
      vertex 6.6 2.94115 5.75
      vertex 6.6 2.94115 0
      vertex 6.22721 3.22721 5.75
    endloop
  endfacet
  facet normal 0.608762 0.793353 0
    outer loop
      vertex 6.22721 3.22721 5.75
      vertex 6.6 2.94115 0
      vertex 6.22721 3.22721 0
    endloop
  endfacet
  facet normal 0.793353 0.608762 0
    outer loop
      vertex 5.94115 3.6 5.75
      vertex 6.22721 3.22721 5.75
      vertex 6.22721 3.22721 0
    endloop
  endfacet
  facet normal 0.793353 0.608762 0
    outer loop
      vertex 5.94115 3.6 0
      vertex 5.94115 3.6 5.75
      vertex 6.22721 3.22721 0
    endloop
  endfacet
  facet normal 0.92388 0.382682 0
    outer loop
      vertex 5.76133 4.03413 5.75
      vertex 5.94115 3.6 5.75
      vertex 5.94115 3.6 0
    endloop
  endfacet
  facet normal 0.92388 0.382682 0
    outer loop
      vertex 5.76133 4.03413 0
      vertex 5.76133 4.03413 5.75
      vertex 5.94115 3.6 0
    endloop
  endfacet
  facet normal 0.587785 0.809017 0
    outer loop
      vertex 8.90876 9 3
      vertex 8.90876 9 5.75
      vertex 9.69131 8.43145 3
    endloop
  endfacet
  facet normal 0.587785 0.809017 0
    outer loop
      vertex 9.69131 8.43145 3
      vertex 8.90876 9 5.75
      vertex 9.69131 8.43145 5.75
    endloop
  endfacet
  facet normal 0.743145 0.669131 0
    outer loop
      vertex 11.0902 6.87785 3
      vertex 9.69131 8.43145 3
      vertex 9.69131 8.43145 5.75
    endloop
  endfacet
  facet normal 0.743145 0.669131 0
    outer loop
      vertex 11.0902 6.87785 5.75
      vertex 11.0902 6.87785 3
      vertex 9.69131 8.43145 5.75
    endloop
  endfacet
  facet normal 0.866025 0.5 0
    outer loop
      vertex 12 5.30198 3
      vertex 11.0902 6.87785 3
      vertex 11.0902 6.87785 5.75
    endloop
  endfacet
  facet normal 0.866025 0.5 0
    outer loop
      vertex 12 5.30198 5.75
      vertex 12 5.30198 3
      vertex 11.0902 6.87785 5.75
    endloop
  endfacet
endsolid OpenSCAD_Model
