solid OpenSCAD_Model
  facet normal -1 0 0
    outer loop
      vertex 0 0 0
      vertex 0 20 4
      vertex 0 20 0
    endloop
  endfacet
  facet normal -1 -0 0
    outer loop
      vertex 0 20 4
      vertex 0 0 0
      vertex 0 0 4
    endloop
  endfacet
  facet normal -0 0 1
    outer loop
      vertex 0 20 4
      vertex 7.5 0 4
      vertex 7.5 20 4
    endloop
  endfacet
  facet normal 0 0 1
    outer loop
      vertex 7.5 0 4
      vertex 0 20 4
      vertex 0 0 4
    endloop
  endfacet
  facet normal 0 0 1
    outer loop
      vertex 47.25 10 4
      vertex 51 10 4
      vertex 50.9316 11.0442 4
    endloop
  endfacet
  facet normal 0 0 1
    outer loop
      vertex 47.2136 10.5547 4
      vertex 50.9316 11.0442 4
      vertex 50.7274 12.0706 4
    endloop
  endfacet
  facet normal 0 0 1
    outer loop
      vertex 51 10 4
      vertex 47.25 10 4
      vertex 50.9316 8.95579 4
    endloop
  endfacet
  facet normal 0 0 1
    outer loop
      vertex 47.1052 11.1 4
      vertex 50.7274 12.0706 4
      vertex 50.391 13.0615 4
    endloop
  endfacet
  facet normal -0 0 1
    outer loop
      vertex 47.2136 9.44526 4
      vertex 50.9316 8.95579 4
      vertex 47.25 10 4
    endloop
  endfacet
  facet normal 0 0 1
    outer loop
      vertex 46.9265 11.6264 4
      vertex 50.391 13.0615 4
      vertex 49.9282 14 4
    endloop
  endfacet
  facet normal 0 0 1
    outer loop
      vertex 50.9316 8.95579 4
      vertex 47.2136 9.44526 4
      vertex 50.7274 7.92945 4
    endloop
  endfacet
  facet normal 0 0 1
    outer loop
      vertex 46.6806 12.125 4
      vertex 49.9282 14 4
      vertex 49.3468 14.8701 4
    endloop
  endfacet
  facet normal -0 0 1
    outer loop
      vertex 47.1052 8.90002 4
      vertex 50.7274 7.92945 4
      vertex 47.2136 9.44526 4
    endloop
  endfacet
  facet normal 0 0 1
    outer loop
      vertex 46.3717 12.5872 4
      vertex 49.3468 14.8701 4
      vertex 48.6569 15.6569 4
    endloop
  endfacet
  facet normal 0 0 1
    outer loop
      vertex 50.7274 7.92945 4
      vertex 47.1052 8.90002 4
      vertex 50.391 6.93853 4
    endloop
  endfacet
  facet normal 0 0 1
    outer loop
      vertex 46.0052 13.0052 4
      vertex 48.6569 15.6569 4
      vertex 47.8701 16.3468 4
    endloop
  endfacet
  facet normal -0 0 1
    outer loop
      vertex 46.9265 8.3736 4
      vertex 50.391 6.93853 4
      vertex 47.1052 8.90002 4
    endloop
  endfacet
  facet normal 0 0 1
    outer loop
      vertex 50.391 6.93853 4
      vertex 46.9265 8.3736 4
      vertex 49.9282 6 4
    endloop
  endfacet
  facet normal 0 0 1
    outer loop
      vertex 50.9316 11.0442 4
      vertex 47.2136 10.5547 4
      vertex 47.25 10 4
    endloop
  endfacet
  facet normal 0 0 1
    outer loop
      vertex 50.7274 12.0706 4
      vertex 47.1052 11.1 4
      vertex 47.2136 10.5547 4
    endloop
  endfacet
  facet normal 0 0 1
    outer loop
      vertex 45.5872 13.3718 4
      vertex 47.8701 16.3468 4
      vertex 47 16.9282 4
    endloop
  endfacet
  facet normal 0 0 1
    outer loop
      vertex 50.391 13.0615 4
      vertex 46.9265 11.6264 4
      vertex 47.1052 11.1 4
    endloop
  endfacet
  facet normal 0 0 1
    outer loop
      vertex 49.9282 14 4
      vertex 46.6806 12.125 4
      vertex 46.9265 11.6264 4
    endloop
  endfacet
  facet normal 0 0 1
    outer loop
      vertex 49.3468 14.8701 4
      vertex 46.3717 12.5872 4
      vertex 46.6806 12.125 4
    endloop
  endfacet
  facet normal 0 0 1
    outer loop
      vertex 45.125 13.6806 4
      vertex 47 16.9282 4
      vertex 46.0615 17.391 4
    endloop
  endfacet
  facet normal 0 0 1
    outer loop
      vertex 48.6569 15.6569 4
      vertex 46.0052 13.0052 4
      vertex 46.3717 12.5872 4
    endloop
  endfacet
  facet normal 0 0 1
    outer loop
      vertex 47.8701 16.3468 4
      vertex 45.5872 13.3718 4
      vertex 46.0052 13.0052 4
    endloop
  endfacet
  facet normal 0 0 1
    outer loop
      vertex 47 16.9282 4
      vertex 45.125 13.6806 4
      vertex 45.5872 13.3718 4
    endloop
  endfacet
  facet normal 0 0 1
    outer loop
      vertex 44.6264 13.9265 4
      vertex 46.0615 17.391 4
      vertex 45.0706 17.7274 4
    endloop
  endfacet
  facet normal 0 0 1
    outer loop
      vertex 46.0615 17.391 4
      vertex 44.6264 13.9265 4
      vertex 45.125 13.6806 4
    endloop
  endfacet
  facet normal 0 0 1
    outer loop
      vertex 45.0706 17.7274 4
      vertex 44.1 14.1052 4
      vertex 44.6264 13.9265 4
    endloop
  endfacet
  facet normal 0 0 1
    outer loop
      vertex 44.0442 17.9316 4
      vertex 44.1 14.1052 4
      vertex 45.0706 17.7274 4
    endloop
  endfacet
  facet normal 0 0 1
    outer loop
      vertex 44.0442 17.9316 4
      vertex 43.5547 14.2136 4
      vertex 44.1 14.1052 4
    endloop
  endfacet
  facet normal 0 0 1
    outer loop
      vertex 44.0442 17.9316 4
      vertex 43 14.25 4
      vertex 43.5547 14.2136 4
    endloop
  endfacet
  facet normal 0 0 1
    outer loop
      vertex 44.0442 17.9316 4
      vertex 42.4453 14.2136 4
      vertex 43 14.25 4
    endloop
  endfacet
  facet normal 0 0 1
    outer loop
      vertex 44.0442 17.9316 4
      vertex 41.9 14.1052 4
      vertex 42.4453 14.2136 4
    endloop
  endfacet
  facet normal 0 0 1
    outer loop
      vertex 44.0442 17.9316 4
      vertex 41.3736 13.9265 4
      vertex 41.9 14.1052 4
    endloop
  endfacet
  facet normal 0 0 1
    outer loop
      vertex 44.0442 17.9316 4
      vertex 40.875 13.6806 4
      vertex 41.3736 13.9265 4
    endloop
  endfacet
  facet normal 0 0 1
    outer loop
      vertex 44.0442 17.9316 4
      vertex 40.4128 13.3718 4
      vertex 40.875 13.6806 4
    endloop
  endfacet
  facet normal 0 0 1
    outer loop
      vertex 20 20 4
      vertex 40.4128 13.3718 4
      vertex 44.0442 17.9316 4
    endloop
  endfacet
  facet normal 0 0 1
    outer loop
      vertex 40.4128 13.3718 4
      vertex 20 20 4
      vertex 39.9948 13.0052 4
    endloop
  endfacet
  facet normal 0 0 1
    outer loop
      vertex 38.7864 10.5547 4
      vertex 20 20 4
      vertex 38.75 10 4
    endloop
  endfacet
  facet normal 0 0 1
    outer loop
      vertex 38.8948 11.1 4
      vertex 20 20 4
      vertex 38.7864 10.5547 4
    endloop
  endfacet
  facet normal 0 0 1
    outer loop
      vertex 39.0735 11.6264 4
      vertex 20 20 4
      vertex 38.8948 11.1 4
    endloop
  endfacet
  facet normal 0 0 1
    outer loop
      vertex 39.3194 12.125 4
      vertex 20 20 4
      vertex 39.0735 11.6264 4
    endloop
  endfacet
  facet normal 0 0 1
    outer loop
      vertex 39.6283 12.5872 4
      vertex 20 20 4
      vertex 39.3194 12.125 4
    endloop
  endfacet
  facet normal 0 0 1
    outer loop
      vertex 39.9948 13.0052 4
      vertex 20 20 4
      vertex 39.6283 12.5872 4
    endloop
  endfacet
  facet normal -0 0 1
    outer loop
      vertex 46.6806 7.875 4
      vertex 49.9282 6 4
      vertex 46.9265 8.3736 4
    endloop
  endfacet
  facet normal 0 0 1
    outer loop
      vertex 49.9282 6 4
      vertex 46.6806 7.875 4
      vertex 49.3468 5.12991 4
    endloop
  endfacet
  facet normal -0 0 1
    outer loop
      vertex 46.3717 7.41276 4
      vertex 49.3468 5.12991 4
      vertex 46.6806 7.875 4
    endloop
  endfacet
  facet normal 0 0 1
    outer loop
      vertex 49.3468 5.12991 4
      vertex 46.3717 7.41276 4
      vertex 48.6569 4.34315 4
    endloop
  endfacet
  facet normal -0 0 1
    outer loop
      vertex 46.0052 6.9948 4
      vertex 48.6569 4.34315 4
      vertex 46.3717 7.41276 4
    endloop
  endfacet
  facet normal 0 0 1
    outer loop
      vertex 48.6569 4.34315 4
      vertex 46.0052 6.9948 4
      vertex 47.8701 3.65317 4
    endloop
  endfacet
  facet normal -0 0 1
    outer loop
      vertex 45.5872 6.62825 4
      vertex 47.8701 3.65317 4
      vertex 46.0052 6.9948 4
    endloop
  endfacet
  facet normal 0 0 1
    outer loop
      vertex 47.8701 3.65317 4
      vertex 45.5872 6.62825 4
      vertex 47 3.0718 4
    endloop
  endfacet
  facet normal -0 0 1
    outer loop
      vertex 45.125 6.31939 4
      vertex 47 3.0718 4
      vertex 45.5872 6.62825 4
    endloop
  endfacet
  facet normal 0 0 1
    outer loop
      vertex 47 3.0718 4
      vertex 45.125 6.31939 4
      vertex 46.0615 2.60896 4
    endloop
  endfacet
  facet normal -0 0 1
    outer loop
      vertex 44.6264 6.07351 4
      vertex 46.0615 2.60896 4
      vertex 45.125 6.31939 4
    endloop
  endfacet
  facet normal 0 0 1
    outer loop
      vertex 46.0615 2.60896 4
      vertex 44.6264 6.07351 4
      vertex 45.0706 2.27259 4
    endloop
  endfacet
  facet normal -0 0 1
    outer loop
      vertex 44.1 5.89481 4
      vertex 45.0706 2.27259 4
      vertex 44.6264 6.07351 4
    endloop
  endfacet
  facet normal 0 0 1
    outer loop
      vertex 44.1 5.89481 4
      vertex 44.0442 2.06844 4
      vertex 45.0706 2.27259 4
    endloop
  endfacet
  facet normal -0 0 1
    outer loop
      vertex 43.5547 5.78636 4
      vertex 44.0442 2.06844 4
      vertex 44.1 5.89481 4
    endloop
  endfacet
  facet normal -0 0 1
    outer loop
      vertex 43 5.75 4
      vertex 44.0442 2.06844 4
      vertex 43.5547 5.78636 4
    endloop
  endfacet
  facet normal 0 0 1
    outer loop
      vertex 42.4453 5.78636 4
      vertex 44.0442 2.06844 4
      vertex 43 5.75 4
    endloop
  endfacet
  facet normal 0 0 1
    outer loop
      vertex 41.9 5.89481 4
      vertex 44.0442 2.06844 4
      vertex 42.4453 5.78636 4
    endloop
  endfacet
  facet normal 0 0 1
    outer loop
      vertex 41.3736 6.07351 4
      vertex 44.0442 2.06844 4
      vertex 41.9 5.89481 4
    endloop
  endfacet
  facet normal 0 0 1
    outer loop
      vertex 40.875 6.31939 4
      vertex 44.0442 2.06844 4
      vertex 41.3736 6.07351 4
    endloop
  endfacet
  facet normal 0 0 1
    outer loop
      vertex 40.4128 6.62825 4
      vertex 44.0442 2.06844 4
      vertex 40.875 6.31939 4
    endloop
  endfacet
  facet normal 0 0 1
    outer loop
      vertex 20 0 4
      vertex 40.4128 6.62825 4
      vertex 39.9948 6.9948 4
    endloop
  endfacet
  facet normal 0 0 1
    outer loop
      vertex 20 0 4
      vertex 39.9948 6.9948 4
      vertex 39.6283 7.41276 4
    endloop
  endfacet
  facet normal 0 0 1
    outer loop
      vertex 20 0 4
      vertex 38.75 10 4
      vertex 20 20 4
    endloop
  endfacet
  facet normal 0 0 1
    outer loop
      vertex 38.75 10 4
      vertex 20 0 4
      vertex 38.7864 9.44526 4
    endloop
  endfacet
  facet normal 0 0 1
    outer loop
      vertex 38.7864 9.44526 4
      vertex 20 0 4
      vertex 38.8948 8.90002 4
    endloop
  endfacet
  facet normal 0 0 1
    outer loop
      vertex 38.8948 8.90002 4
      vertex 20 0 4
      vertex 39.0735 8.3736 4
    endloop
  endfacet
  facet normal 0 0 1
    outer loop
      vertex 39.0735 8.3736 4
      vertex 20 0 4
      vertex 39.3194 7.875 4
    endloop
  endfacet
  facet normal 0 0 1
    outer loop
      vertex 39.3194 7.875 4
      vertex 20 0 4
      vertex 39.6283 7.41276 4
    endloop
  endfacet
  facet normal 0 0 1
    outer loop
      vertex 40.4128 6.62825 4
      vertex 20 0 4
      vertex 44.0442 2.06844 4
    endloop
  endfacet
  facet normal -0 0 1
    outer loop
      vertex 14 20 4
      vertex 20 0 4
      vertex 20 20 4
    endloop
  endfacet
  facet normal 0 0 1
    outer loop
      vertex 20 0 4
      vertex 14 20 4
      vertex 14 0 4
    endloop
  endfacet
  facet normal 0 -1 0
    outer loop
      vertex 0 0 0
      vertex 7.5 0 4
      vertex 0 0 4
    endloop
  endfacet
  facet normal 0 -1 0
    outer loop
      vertex 20 0 0
      vertex 7.5 0 4
      vertex 0 0 0
    endloop
  endfacet
  facet normal 0 -1 0
    outer loop
      vertex 7.5 0 4
      vertex 20 0 0
      vertex 14 0 4
    endloop
  endfacet
  facet normal 0 -1 0
    outer loop
      vertex 14 0 4
      vertex 20 0 0
      vertex 20 0 4
    endloop
  endfacet
  facet normal 0 -1 0
    outer loop
      vertex 7.5 0 4
      vertex 14 0 6.5
      vertex 7.5 0 6.5
    endloop
  endfacet
  facet normal 0 -1 -0
    outer loop
      vertex 14 0 6.5
      vertex 7.5 0 4
      vertex 14 0 4
    endloop
  endfacet
  facet normal 0 0 -1
    outer loop
      vertex 13.2286 10.3263 0
      vertex 20 20 0
      vertex 13.25 10 0
    endloop
  endfacet
  facet normal 0 0 -1
    outer loop
      vertex 13.1648 10.647 0
      vertex 20 20 0
      vertex 13.2286 10.3263 0
    endloop
  endfacet
  facet normal 0 0 -1
    outer loop
      vertex 13.0597 10.9567 0
      vertex 20 20 0
      vertex 13.1648 10.647 0
    endloop
  endfacet
  facet normal 0 0 -1
    outer loop
      vertex 12.9151 11.25 0
      vertex 20 20 0
      vertex 13.0597 10.9567 0
    endloop
  endfacet
  facet normal 0 0 -1
    outer loop
      vertex 12.7334 11.5219 0
      vertex 20 20 0
      vertex 12.9151 11.25 0
    endloop
  endfacet
  facet normal 0 0 -1
    outer loop
      vertex 12.5178 11.7678 0
      vertex 20 20 0
      vertex 12.7334 11.5219 0
    endloop
  endfacet
  facet normal 0 0 -1
    outer loop
      vertex 12.2719 11.9834 0
      vertex 20 20 0
      vertex 12.5178 11.7678 0
    endloop
  endfacet
  facet normal 0 0 -1
    outer loop
      vertex 12 12.1651 0
      vertex 20 20 0
      vertex 12.2719 11.9834 0
    endloop
  endfacet
  facet normal 0 0 -1
    outer loop
      vertex 11.7067 12.3097 0
      vertex 20 20 0
      vertex 12 12.1651 0
    endloop
  endfacet
  facet normal 0 0 -1
    outer loop
      vertex 11.397 12.4148 0
      vertex 20 20 0
      vertex 11.7067 12.3097 0
    endloop
  endfacet
  facet normal 0 0 -1
    outer loop
      vertex 11.0763 12.4786 0
      vertex 20 20 0
      vertex 11.397 12.4148 0
    endloop
  endfacet
  facet normal 0 0 -1
    outer loop
      vertex 10.75 12.5 0
      vertex 20 20 0
      vertex 11.0763 12.4786 0
    endloop
  endfacet
  facet normal 0 0 -1
    outer loop
      vertex 10.4237 12.4786 0
      vertex 20 20 0
      vertex 10.75 12.5 0
    endloop
  endfacet
  facet normal 0 0 -1
    outer loop
      vertex 0 20 0
      vertex 10.4237 12.4786 0
      vertex 10.103 12.4148 0
    endloop
  endfacet
  facet normal 0 0 -1
    outer loop
      vertex 0 20 0
      vertex 10.103 12.4148 0
      vertex 9.79329 12.3097 0
    endloop
  endfacet
  facet normal 0 0 -1
    outer loop
      vertex 0 20 0
      vertex 9.79329 12.3097 0
      vertex 9.5 12.1651 0
    endloop
  endfacet
  facet normal 0 0 -1
    outer loop
      vertex 0 20 0
      vertex 9.5 12.1651 0
      vertex 9.2281 11.9834 0
    endloop
  endfacet
  facet normal 0 0 -1
    outer loop
      vertex 0 20 0
      vertex 8.25 10 0
      vertex 0 0 0
    endloop
  endfacet
  facet normal 0 0 -1
    outer loop
      vertex 8.25 10 0
      vertex 0 20 0
      vertex 8.27139 10.3263 0
    endloop
  endfacet
  facet normal 0 0 -1
    outer loop
      vertex 8.27139 10.3263 0
      vertex 0 20 0
      vertex 8.33519 10.647 0
    endloop
  endfacet
  facet normal 0 0 -1
    outer loop
      vertex 8.33519 10.647 0
      vertex 0 20 0
      vertex 8.4403 10.9567 0
    endloop
  endfacet
  facet normal 0 0 -1
    outer loop
      vertex 8.4403 10.9567 0
      vertex 0 20 0
      vertex 8.58494 11.25 0
    endloop
  endfacet
  facet normal 0 0 -1
    outer loop
      vertex 10.4237 12.4786 0
      vertex 0 20 0
      vertex 20 20 0
    endloop
  endfacet
  facet normal 0 0 -1
    outer loop
      vertex 8.98223 11.7678 0
      vertex 0 20 0
      vertex 9.2281 11.9834 0
    endloop
  endfacet
  facet normal 0 0 -1
    outer loop
      vertex 8.76662 11.5219 0
      vertex 0 20 0
      vertex 8.98223 11.7678 0
    endloop
  endfacet
  facet normal 0 0 -1
    outer loop
      vertex 8.58494 11.25 0
      vertex 0 20 0
      vertex 8.76662 11.5219 0
    endloop
  endfacet
  facet normal 0 0 -1
    outer loop
      vertex 47.25 10 0
      vertex 51 10 0
      vertex 50.9316 8.95579 0
    endloop
  endfacet
  facet normal 0 0 -1
    outer loop
      vertex 47.2136 9.44526 0
      vertex 50.9316 8.95579 0
      vertex 50.7274 7.92945 0
    endloop
  endfacet
  facet normal 0 0 -1
    outer loop
      vertex 51 10 0
      vertex 47.25 10 0
      vertex 50.9316 11.0442 0
    endloop
  endfacet
  facet normal 0 0 -1
    outer loop
      vertex 47.1052 8.90002 0
      vertex 50.7274 7.92945 0
      vertex 50.391 6.93853 0
    endloop
  endfacet
  facet normal 0 0 -1
    outer loop
      vertex 47.2136 10.5547 0
      vertex 50.9316 11.0442 0
      vertex 47.25 10 0
    endloop
  endfacet
  facet normal 0 0 -1
    outer loop
      vertex 46.9265 8.3736 0
      vertex 50.391 6.93853 0
      vertex 49.9282 6 0
    endloop
  endfacet
  facet normal -0 0 -1
    outer loop
      vertex 50.9316 11.0442 0
      vertex 47.2136 10.5547 0
      vertex 50.7274 12.0706 0
    endloop
  endfacet
  facet normal 0 0 -1
    outer loop
      vertex 46.6806 7.875 0
      vertex 49.9282 6 0
      vertex 49.3468 5.12991 0
    endloop
  endfacet
  facet normal 0 0 -1
    outer loop
      vertex 47.1052 11.1 0
      vertex 50.7274 12.0706 0
      vertex 47.2136 10.5547 0
    endloop
  endfacet
  facet normal 0 0 -1
    outer loop
      vertex 46.3717 7.41276 0
      vertex 49.3468 5.12991 0
      vertex 48.6569 4.34315 0
    endloop
  endfacet
  facet normal -0 0 -1
    outer loop
      vertex 50.7274 12.0706 0
      vertex 47.1052 11.1 0
      vertex 50.391 13.0615 0
    endloop
  endfacet
  facet normal 0 0 -1
    outer loop
      vertex 46.0052 6.9948 0
      vertex 48.6569 4.34315 0
      vertex 47.8701 3.65317 0
    endloop
  endfacet
  facet normal 0 0 -1
    outer loop
      vertex 46.9265 11.6264 0
      vertex 50.391 13.0615 0
      vertex 47.1052 11.1 0
    endloop
  endfacet
  facet normal -0 0 -1
    outer loop
      vertex 50.391 13.0615 0
      vertex 46.9265 11.6264 0
      vertex 49.9282 14 0
    endloop
  endfacet
  facet normal 0 0 -1
    outer loop
      vertex 50.9316 8.95579 0
      vertex 47.2136 9.44526 0
      vertex 47.25 10 0
    endloop
  endfacet
  facet normal 0 0 -1
    outer loop
      vertex 50.7274 7.92945 0
      vertex 47.1052 8.90002 0
      vertex 47.2136 9.44526 0
    endloop
  endfacet
  facet normal 0 0 -1
    outer loop
      vertex 45.5872 6.62825 0
      vertex 47.8701 3.65317 0
      vertex 47 3.0718 0
    endloop
  endfacet
  facet normal 0 0 -1
    outer loop
      vertex 50.391 6.93853 0
      vertex 46.9265 8.3736 0
      vertex 47.1052 8.90002 0
    endloop
  endfacet
  facet normal 0 0 -1
    outer loop
      vertex 49.9282 6 0
      vertex 46.6806 7.875 0
      vertex 46.9265 8.3736 0
    endloop
  endfacet
  facet normal 0 0 -1
    outer loop
      vertex 49.3468 5.12991 0
      vertex 46.3717 7.41276 0
      vertex 46.6806 7.875 0
    endloop
  endfacet
  facet normal 0 0 -1
    outer loop
      vertex 45.125 6.31939 0
      vertex 47 3.0718 0
      vertex 46.0615 2.60896 0
    endloop
  endfacet
  facet normal 0 0 -1
    outer loop
      vertex 48.6569 4.34315 0
      vertex 46.0052 6.9948 0
      vertex 46.3717 7.41276 0
    endloop
  endfacet
  facet normal 0 0 -1
    outer loop
      vertex 47.8701 3.65317 0
      vertex 45.5872 6.62825 0
      vertex 46.0052 6.9948 0
    endloop
  endfacet
  facet normal 0 0 -1
    outer loop
      vertex 47 3.0718 0
      vertex 45.125 6.31939 0
      vertex 45.5872 6.62825 0
    endloop
  endfacet
  facet normal 0 0 -1
    outer loop
      vertex 44.6264 6.07351 0
      vertex 46.0615 2.60896 0
      vertex 45.0706 2.27259 0
    endloop
  endfacet
  facet normal 0 0 -1
    outer loop
      vertex 46.0615 2.60896 0
      vertex 44.6264 6.07351 0
      vertex 45.125 6.31939 0
    endloop
  endfacet
  facet normal 0 0 -1
    outer loop
      vertex 45.0706 2.27259 0
      vertex 44.1 5.89481 0
      vertex 44.6264 6.07351 0
    endloop
  endfacet
  facet normal 0 0 -1
    outer loop
      vertex 44.0442 2.06844 0
      vertex 44.1 5.89481 0
      vertex 45.0706 2.27259 0
    endloop
  endfacet
  facet normal 0 0 -1
    outer loop
      vertex 44.0442 2.06844 0
      vertex 43.5547 5.78636 0
      vertex 44.1 5.89481 0
    endloop
  endfacet
  facet normal 0 0 -1
    outer loop
      vertex 44.0442 2.06844 0
      vertex 43 5.75 0
      vertex 43.5547 5.78636 0
    endloop
  endfacet
  facet normal 0 0 -1
    outer loop
      vertex 44.0442 2.06844 0
      vertex 42.4453 5.78636 0
      vertex 43 5.75 0
    endloop
  endfacet
  facet normal 0 0 -1
    outer loop
      vertex 44.0442 2.06844 0
      vertex 41.9 5.89481 0
      vertex 42.4453 5.78636 0
    endloop
  endfacet
  facet normal 0 0 -1
    outer loop
      vertex 44.0442 2.06844 0
      vertex 41.3736 6.07351 0
      vertex 41.9 5.89481 0
    endloop
  endfacet
  facet normal 0 0 -1
    outer loop
      vertex 44.0442 2.06844 0
      vertex 40.875 6.31939 0
      vertex 41.3736 6.07351 0
    endloop
  endfacet
  facet normal 0 0 -1
    outer loop
      vertex 44.0442 2.06844 0
      vertex 40.4128 6.62825 0
      vertex 40.875 6.31939 0
    endloop
  endfacet
  facet normal 0 0 -1
    outer loop
      vertex 20 0 0
      vertex 40.4128 6.62825 0
      vertex 44.0442 2.06844 0
    endloop
  endfacet
  facet normal -0 0 -1
    outer loop
      vertex 40.4128 6.62825 0
      vertex 20 0 0
      vertex 39.9948 6.9948 0
    endloop
  endfacet
  facet normal -0 0 -1
    outer loop
      vertex 38.7864 9.44526 0
      vertex 20 0 0
      vertex 38.75 10 0
    endloop
  endfacet
  facet normal -0 0 -1
    outer loop
      vertex 38.8948 8.90002 0
      vertex 20 0 0
      vertex 38.7864 9.44526 0
    endloop
  endfacet
  facet normal -0 0 -1
    outer loop
      vertex 39.0735 8.3736 0
      vertex 20 0 0
      vertex 38.8948 8.90002 0
    endloop
  endfacet
  facet normal -0 0 -1
    outer loop
      vertex 39.3194 7.875 0
      vertex 20 0 0
      vertex 39.0735 8.3736 0
    endloop
  endfacet
  facet normal -0 0 -1
    outer loop
      vertex 39.6283 7.41276 0
      vertex 20 0 0
      vertex 39.3194 7.875 0
    endloop
  endfacet
  facet normal -0 0 -1
    outer loop
      vertex 39.9948 6.9948 0
      vertex 20 0 0
      vertex 39.6283 7.41276 0
    endloop
  endfacet
  facet normal 0 0 -1
    outer loop
      vertex 46.6806 12.125 0
      vertex 49.9282 14 0
      vertex 46.9265 11.6264 0
    endloop
  endfacet
  facet normal -0 0 -1
    outer loop
      vertex 49.9282 14 0
      vertex 46.6806 12.125 0
      vertex 49.3468 14.8701 0
    endloop
  endfacet
  facet normal 0 0 -1
    outer loop
      vertex 46.3717 12.5872 0
      vertex 49.3468 14.8701 0
      vertex 46.6806 12.125 0
    endloop
  endfacet
  facet normal -0 0 -1
    outer loop
      vertex 49.3468 14.8701 0
      vertex 46.3717 12.5872 0
      vertex 48.6569 15.6569 0
    endloop
  endfacet
  facet normal 0 0 -1
    outer loop
      vertex 46.0052 13.0052 0
      vertex 48.6569 15.6569 0
      vertex 46.3717 12.5872 0
    endloop
  endfacet
  facet normal -0 0 -1
    outer loop
      vertex 48.6569 15.6569 0
      vertex 46.0052 13.0052 0
      vertex 47.8701 16.3468 0
    endloop
  endfacet
  facet normal 0 0 -1
    outer loop
      vertex 45.5872 13.3718 0
      vertex 47.8701 16.3468 0
      vertex 46.0052 13.0052 0
    endloop
  endfacet
  facet normal -0 0 -1
    outer loop
      vertex 47.8701 16.3468 0
      vertex 45.5872 13.3718 0
      vertex 47 16.9282 0
    endloop
  endfacet
  facet normal 0 0 -1
    outer loop
      vertex 45.125 13.6806 0
      vertex 47 16.9282 0
      vertex 45.5872 13.3718 0
    endloop
  endfacet
  facet normal -0 0 -1
    outer loop
      vertex 47 16.9282 0
      vertex 45.125 13.6806 0
      vertex 46.0615 17.391 0
    endloop
  endfacet
  facet normal 0 0 -1
    outer loop
      vertex 44.6264 13.9265 0
      vertex 46.0615 17.391 0
      vertex 45.125 13.6806 0
    endloop
  endfacet
  facet normal -0 0 -1
    outer loop
      vertex 46.0615 17.391 0
      vertex 44.6264 13.9265 0
      vertex 45.0706 17.7274 0
    endloop
  endfacet
  facet normal 0 0 -1
    outer loop
      vertex 44.1 14.1052 0
      vertex 45.0706 17.7274 0
      vertex 44.6264 13.9265 0
    endloop
  endfacet
  facet normal 0 0 -1
    outer loop
      vertex 44.1 14.1052 0
      vertex 44.0442 17.9316 0
      vertex 45.0706 17.7274 0
    endloop
  endfacet
  facet normal 0 0 -1
    outer loop
      vertex 43.5547 14.2136 0
      vertex 44.0442 17.9316 0
      vertex 44.1 14.1052 0
    endloop
  endfacet
  facet normal 0 0 -1
    outer loop
      vertex 43 14.25 0
      vertex 44.0442 17.9316 0
      vertex 43.5547 14.2136 0
    endloop
  endfacet
  facet normal 0 0 -1
    outer loop
      vertex 42.4453 14.2136 0
      vertex 44.0442 17.9316 0
      vertex 43 14.25 0
    endloop
  endfacet
  facet normal 0 0 -1
    outer loop
      vertex 41.9 14.1052 0
      vertex 44.0442 17.9316 0
      vertex 42.4453 14.2136 0
    endloop
  endfacet
  facet normal 0 0 -1
    outer loop
      vertex 41.3736 13.9265 0
      vertex 44.0442 17.9316 0
      vertex 41.9 14.1052 0
    endloop
  endfacet
  facet normal 0 0 -1
    outer loop
      vertex 40.875 13.6806 0
      vertex 44.0442 17.9316 0
      vertex 41.3736 13.9265 0
    endloop
  endfacet
  facet normal 0 0 -1
    outer loop
      vertex 40.4128 13.3718 0
      vertex 44.0442 17.9316 0
      vertex 40.875 13.6806 0
    endloop
  endfacet
  facet normal 0 0 -1
    outer loop
      vertex 20 20 0
      vertex 40.4128 13.3718 0
      vertex 39.9948 13.0052 0
    endloop
  endfacet
  facet normal 0 0 -1
    outer loop
      vertex 20 20 0
      vertex 39.9948 13.0052 0
      vertex 39.6283 12.5872 0
    endloop
  endfacet
  facet normal 0 0 -1
    outer loop
      vertex 20 20 0
      vertex 38.75 10 0
      vertex 20 0 0
    endloop
  endfacet
  facet normal 0 0 -1
    outer loop
      vertex 38.75 10 0
      vertex 20 20 0
      vertex 38.7864 10.5547 0
    endloop
  endfacet
  facet normal 0 0 -1
    outer loop
      vertex 38.7864 10.5547 0
      vertex 20 20 0
      vertex 38.8948 11.1 0
    endloop
  endfacet
  facet normal 0 0 -1
    outer loop
      vertex 38.8948 11.1 0
      vertex 20 20 0
      vertex 39.0735 11.6264 0
    endloop
  endfacet
  facet normal 0 0 -1
    outer loop
      vertex 39.0735 11.6264 0
      vertex 20 20 0
      vertex 39.3194 12.125 0
    endloop
  endfacet
  facet normal 0 0 -1
    outer loop
      vertex 39.3194 12.125 0
      vertex 20 20 0
      vertex 39.6283 12.5872 0
    endloop
  endfacet
  facet normal 0 0 -1
    outer loop
      vertex 40.4128 13.3718 0
      vertex 20 20 0
      vertex 44.0442 17.9316 0
    endloop
  endfacet
  facet normal 0 0 -1
    outer loop
      vertex 20 0 0
      vertex 13.25 10 0
      vertex 20 20 0
    endloop
  endfacet
  facet normal 0 0 -1
    outer loop
      vertex 20 0 0
      vertex 13.2286 9.67368 0
      vertex 13.25 10 0
    endloop
  endfacet
  facet normal 0 0 -1
    outer loop
      vertex 20 0 0
      vertex 13.1648 9.35295 0
      vertex 13.2286 9.67368 0
    endloop
  endfacet
  facet normal 0 0 -1
    outer loop
      vertex 20 0 0
      vertex 13.0597 9.04329 0
      vertex 13.1648 9.35295 0
    endloop
  endfacet
  facet normal 0 0 -1
    outer loop
      vertex 20 0 0
      vertex 12.9151 8.75 0
      vertex 13.0597 9.04329 0
    endloop
  endfacet
  facet normal 0 0 -1
    outer loop
      vertex 20 0 0
      vertex 12.7334 8.4781 0
      vertex 12.9151 8.75 0
    endloop
  endfacet
  facet normal 0 0 -1
    outer loop
      vertex 20 0 0
      vertex 12.5178 8.23223 0
      vertex 12.7334 8.4781 0
    endloop
  endfacet
  facet normal 0 0 -1
    outer loop
      vertex 20 0 0
      vertex 12.2719 8.01662 0
      vertex 12.5178 8.23223 0
    endloop
  endfacet
  facet normal 0 0 -1
    outer loop
      vertex 20 0 0
      vertex 12 7.83494 0
      vertex 12.2719 8.01662 0
    endloop
  endfacet
  facet normal 0 0 -1
    outer loop
      vertex 20 0 0
      vertex 11.7067 7.6903 0
      vertex 12 7.83494 0
    endloop
  endfacet
  facet normal 0 0 -1
    outer loop
      vertex 20 0 0
      vertex 11.397 7.58519 0
      vertex 11.7067 7.6903 0
    endloop
  endfacet
  facet normal 0 0 -1
    outer loop
      vertex 20 0 0
      vertex 11.0763 7.52139 0
      vertex 11.397 7.58519 0
    endloop
  endfacet
  facet normal 0 0 -1
    outer loop
      vertex 20 0 0
      vertex 10.75 7.5 0
      vertex 11.0763 7.52139 0
    endloop
  endfacet
  facet normal 0 0 -1
    outer loop
      vertex 20 0 0
      vertex 10.4237 7.52139 0
      vertex 10.75 7.5 0
    endloop
  endfacet
  facet normal 0 0 -1
    outer loop
      vertex 0 0 0
      vertex 10.4237 7.52139 0
      vertex 20 0 0
    endloop
  endfacet
  facet normal -0 0 -1
    outer loop
      vertex 10.4237 7.52139 0
      vertex 0 0 0
      vertex 10.103 7.58519 0
    endloop
  endfacet
  facet normal -0 0 -1
    outer loop
      vertex 10.103 7.58519 0
      vertex 0 0 0
      vertex 9.79329 7.6903 0
    endloop
  endfacet
  facet normal -0 0 -1
    outer loop
      vertex 9.79329 7.6903 0
      vertex 0 0 0
      vertex 9.5 7.83494 0
    endloop
  endfacet
  facet normal -0 0 -1
    outer loop
      vertex 8.27139 9.67368 0
      vertex 0 0 0
      vertex 8.25 10 0
    endloop
  endfacet
  facet normal -0 0 -1
    outer loop
      vertex 8.33519 9.35295 0
      vertex 0 0 0
      vertex 8.27139 9.67368 0
    endloop
  endfacet
  facet normal -0 0 -1
    outer loop
      vertex 8.4403 9.04329 0
      vertex 0 0 0
      vertex 8.33519 9.35295 0
    endloop
  endfacet
  facet normal -0 0 -1
    outer loop
      vertex 8.58494 8.75 0
      vertex 0 0 0
      vertex 8.4403 9.04329 0
    endloop
  endfacet
  facet normal -0 0 -1
    outer loop
      vertex 8.76662 8.4781 0
      vertex 0 0 0
      vertex 8.58494 8.75 0
    endloop
  endfacet
  facet normal -0 0 -1
    outer loop
      vertex 8.98223 8.23223 0
      vertex 0 0 0
      vertex 8.76662 8.4781 0
    endloop
  endfacet
  facet normal -0 0 -1
    outer loop
      vertex 9.2281 8.01662 0
      vertex 0 0 0
      vertex 8.98223 8.23223 0
    endloop
  endfacet
  facet normal -0 0 -1
    outer loop
      vertex 9.5 7.83494 0
      vertex 0 0 0
      vertex 9.2281 8.01662 0
    endloop
  endfacet
  facet normal 0.08571 -0.99632 0
    outer loop
      vertex 20 0 0
      vertex 44.0442 2.06844 4
      vertex 20 0 4
    endloop
  endfacet
  facet normal 0.08571 -0.99632 0
    outer loop
      vertex 44.0442 2.06844 4
      vertex 20 0 0
      vertex 44.0442 2.06844 0
    endloop
  endfacet
  facet normal 0.195091 0.980785 -0
    outer loop
      vertex 45.0706 17.7274 0
      vertex 44.0442 17.9316 4
      vertex 45.0706 17.7274 4
    endloop
  endfacet
  facet normal 0.195091 0.980785 0
    outer loop
      vertex 44.0442 17.9316 4
      vertex 45.0706 17.7274 0
      vertex 44.0442 17.9316 0
    endloop
  endfacet
  facet normal 0.19509 -0.980785 0
    outer loop
      vertex 44.0442 2.06844 0
      vertex 45.0706 2.27259 4
      vertex 44.0442 2.06844 4
    endloop
  endfacet
  facet normal 0.19509 -0.980785 0
    outer loop
      vertex 45.0706 2.27259 4
      vertex 44.0442 2.06844 0
      vertex 45.0706 2.27259 0
    endloop
  endfacet
  facet normal 0.946931 0.321438 0
    outer loop
      vertex 50.7274 12.0706 4
      vertex 50.391 13.0615 0
      vertex 50.391 13.0615 4
    endloop
  endfacet
  facet normal 0.946931 0.321438 0
    outer loop
      vertex 50.391 13.0615 0
      vertex 50.7274 12.0706 4
      vertex 50.7274 12.0706 0
    endloop
  endfacet
  facet normal 0 1 -0
    outer loop
      vertex 20 20 0
      vertex 14 20 4
      vertex 20 20 4
    endloop
  endfacet
  facet normal 0 1 0
    outer loop
      vertex 14 20 4
      vertex 20 20 0
      vertex 7.5 20 4
    endloop
  endfacet
  facet normal 0 1 0
    outer loop
      vertex 0 20 0
      vertex 7.5 20 4
      vertex 20 20 0
    endloop
  endfacet
  facet normal 0 1 0
    outer loop
      vertex 7.5 20 4
      vertex 0 20 0
      vertex 0 20 4
    endloop
  endfacet
  facet normal 0 1 -0
    outer loop
      vertex 14 20 4
      vertex 7.5 20 6.5
      vertex 14 20 6.5
    endloop
  endfacet
  facet normal 0 1 0
    outer loop
      vertex 7.5 20 6.5
      vertex 14 20 4
      vertex 7.5 20 4
    endloop
  endfacet
  facet normal 0.08571 0.99632 -0
    outer loop
      vertex 44.0442 17.9316 0
      vertex 20 20 4
      vertex 44.0442 17.9316 4
    endloop
  endfacet
  facet normal 0.08571 0.99632 0
    outer loop
      vertex 20 20 4
      vertex 44.0442 17.9316 0
      vertex 20 20 0
    endloop
  endfacet
  facet normal 0.32144 -0.94693 0
    outer loop
      vertex 45.0706 2.27259 0
      vertex 46.0615 2.60896 4
      vertex 45.0706 2.27259 4
    endloop
  endfacet
  facet normal 0.32144 -0.94693 0
    outer loop
      vertex 46.0615 2.60896 4
      vertex 45.0706 2.27259 0
      vertex 46.0615 2.60896 0
    endloop
  endfacet
  facet normal 0.75184 0.659345 0
    outer loop
      vertex 49.3468 14.8701 4
      vertex 48.6569 15.6569 0
      vertex 48.6569 15.6569 4
    endloop
  endfacet
  facet normal 0.75184 0.659345 0
    outer loop
      vertex 48.6569 15.6569 0
      vertex 49.3468 14.8701 4
      vertex 49.3468 14.8701 0
    endloop
  endfacet
  facet normal 0.55557 -0.83147 0
    outer loop
      vertex 47 3.0718 0
      vertex 47.8701 3.65317 4
      vertex 47 3.0718 4
    endloop
  endfacet
  facet normal 0.55557 -0.83147 0
    outer loop
      vertex 47.8701 3.65317 4
      vertex 47 3.0718 0
      vertex 47.8701 3.65317 0
    endloop
  endfacet
  facet normal 0.75184 -0.659345 0
    outer loop
      vertex 48.6569 4.34315 4
      vertex 49.3468 5.12991 0
      vertex 49.3468 5.12991 4
    endloop
  endfacet
  facet normal 0.75184 -0.659345 0
    outer loop
      vertex 49.3468 5.12991 0
      vertex 48.6569 4.34315 4
      vertex 48.6569 4.34315 0
    endloop
  endfacet
  facet normal 0.659346 -0.751839 0
    outer loop
      vertex 47.8701 3.65317 0
      vertex 48.6569 4.34315 4
      vertex 47.8701 3.65317 4
    endloop
  endfacet
  facet normal 0.659346 -0.751839 0
    outer loop
      vertex 48.6569 4.34315 4
      vertex 47.8701 3.65317 0
      vertex 48.6569 4.34315 0
    endloop
  endfacet
  facet normal 0.896873 0.442289 0
    outer loop
      vertex 50.391 13.0615 4
      vertex 49.9282 14 0
      vertex 49.9282 14 4
    endloop
  endfacet
  facet normal 0.896873 0.442289 0
    outer loop
      vertex 49.9282 14 0
      vertex 50.391 13.0615 4
      vertex 50.391 13.0615 0
    endloop
  endfacet
  facet normal 0.442289 0.896873 -0
    outer loop
      vertex 47 16.9282 0
      vertex 46.0615 17.391 4
      vertex 47 16.9282 4
    endloop
  endfacet
  facet normal 0.442289 0.896873 0
    outer loop
      vertex 46.0615 17.391 4
      vertex 47 16.9282 0
      vertex 46.0615 17.391 0
    endloop
  endfacet
  facet normal 0.555571 0.831469 -0
    outer loop
      vertex 47.8701 16.3468 0
      vertex 47 16.9282 4
      vertex 47.8701 16.3468 4
    endloop
  endfacet
  facet normal 0.555571 0.831469 0
    outer loop
      vertex 47 16.9282 4
      vertex 47.8701 16.3468 0
      vertex 47 16.9282 0
    endloop
  endfacet
  facet normal 0.442289 -0.896873 0
    outer loop
      vertex 46.0615 2.60896 0
      vertex 47 3.0718 4
      vertex 46.0615 2.60896 4
    endloop
  endfacet
  facet normal 0.442289 -0.896873 0
    outer loop
      vertex 47 3.0718 4
      vertex 46.0615 2.60896 0
      vertex 47 3.0718 0
    endloop
  endfacet
  facet normal 0.831468 -0.555572 0
    outer loop
      vertex 49.3468 5.12991 4
      vertex 49.9282 6 0
      vertex 49.9282 6 4
    endloop
  endfacet
  facet normal 0.831468 -0.555572 0
    outer loop
      vertex 49.9282 6 0
      vertex 49.3468 5.12991 4
      vertex 49.3468 5.12991 0
    endloop
  endfacet
  facet normal 0.831468 0.555572 0
    outer loop
      vertex 49.9282 14 4
      vertex 49.3468 14.8701 0
      vertex 49.3468 14.8701 4
    endloop
  endfacet
  facet normal 0.831468 0.555572 0
    outer loop
      vertex 49.3468 14.8701 0
      vertex 49.9282 14 4
      vertex 49.9282 14 0
    endloop
  endfacet
  facet normal 0.980785 0.195089 0
    outer loop
      vertex 50.9316 11.0442 4
      vertex 50.7274 12.0706 0
      vertex 50.7274 12.0706 4
    endloop
  endfacet
  facet normal 0.980785 0.195089 0
    outer loop
      vertex 50.7274 12.0706 0
      vertex 50.9316 11.0442 4
      vertex 50.9316 11.0442 0
    endloop
  endfacet
  facet normal 0.997859 -0.0654052 0
    outer loop
      vertex 50.9316 8.95579 4
      vertex 51 10 0
      vertex 51 10 4
    endloop
  endfacet
  facet normal 0.997859 -0.0654052 0
    outer loop
      vertex 51 10 0
      vertex 50.9316 8.95579 4
      vertex 50.9316 8.95579 0
    endloop
  endfacet
  facet normal 0.980785 -0.195089 0
    outer loop
      vertex 50.7274 7.92945 4
      vertex 50.9316 8.95579 0
      vertex 50.9316 8.95579 4
    endloop
  endfacet
  facet normal 0.980785 -0.195089 0
    outer loop
      vertex 50.9316 8.95579 0
      vertex 50.7274 7.92945 4
      vertex 50.7274 7.92945 0
    endloop
  endfacet
  facet normal 0.321438 0.94693 -0
    outer loop
      vertex 46.0615 17.391 0
      vertex 45.0706 17.7274 4
      vertex 46.0615 17.391 4
    endloop
  endfacet
  facet normal 0.321438 0.94693 0
    outer loop
      vertex 45.0706 17.7274 4
      vertex 46.0615 17.391 0
      vertex 45.0706 17.7274 0
    endloop
  endfacet
  facet normal 0.659346 0.751839 -0
    outer loop
      vertex 48.6569 15.6569 0
      vertex 47.8701 16.3468 4
      vertex 48.6569 15.6569 4
    endloop
  endfacet
  facet normal 0.659346 0.751839 0
    outer loop
      vertex 47.8701 16.3468 4
      vertex 48.6569 15.6569 0
      vertex 47.8701 16.3468 0
    endloop
  endfacet
  facet normal 0.946931 -0.321438 0
    outer loop
      vertex 50.391 6.93853 4
      vertex 50.7274 7.92945 0
      vertex 50.7274 7.92945 4
    endloop
  endfacet
  facet normal 0.946931 -0.321438 0
    outer loop
      vertex 50.7274 7.92945 0
      vertex 50.391 6.93853 4
      vertex 50.391 6.93853 0
    endloop
  endfacet
  facet normal 0.997859 0.0654052 0
    outer loop
      vertex 51 10 4
      vertex 50.9316 11.0442 0
      vertex 50.9316 11.0442 4
    endloop
  endfacet
  facet normal 0.997859 0.0654052 0
    outer loop
      vertex 50.9316 11.0442 0
      vertex 51 10 4
      vertex 51 10 0
    endloop
  endfacet
  facet normal 0.896873 -0.442289 0
    outer loop
      vertex 49.9282 6 4
      vertex 50.391 6.93853 0
      vertex 50.391 6.93853 4
    endloop
  endfacet
  facet normal 0.896873 -0.442289 0
    outer loop
      vertex 50.391 6.93853 0
      vertex 49.9282 6 4
      vertex 49.9282 6 0
    endloop
  endfacet
  facet normal -1 0 0
    outer loop
      vertex 7.5 0 4
      vertex 7.5 20 6.5
      vertex 7.5 20 4
    endloop
  endfacet
  facet normal -1 -0 0
    outer loop
      vertex 7.5 20 6.5
      vertex 7.5 0 4
      vertex 7.5 0 6.5
    endloop
  endfacet
  facet normal 0 0 1
    outer loop
      vertex 14 20 6.5
      vertex 13.25 10 6.5
      vertex 14 0 6.5
    endloop
  endfacet
  facet normal 0 0 1
    outer loop
      vertex 14 20 6.5
      vertex 13.2286 10.3263 6.5
      vertex 13.25 10 6.5
    endloop
  endfacet
  facet normal 0 0 1
    outer loop
      vertex 14 20 6.5
      vertex 13.1648 10.647 6.5
      vertex 13.2286 10.3263 6.5
    endloop
  endfacet
  facet normal 0 0 1
    outer loop
      vertex 14 20 6.5
      vertex 13.0597 10.9567 6.5
      vertex 13.1648 10.647 6.5
    endloop
  endfacet
  facet normal 0 0 1
    outer loop
      vertex 14 20 6.5
      vertex 12.9151 11.25 6.5
      vertex 13.0597 10.9567 6.5
    endloop
  endfacet
  facet normal 0 0 1
    outer loop
      vertex 14 20 6.5
      vertex 12.7334 11.5219 6.5
      vertex 12.9151 11.25 6.5
    endloop
  endfacet
  facet normal 0 0 1
    outer loop
      vertex 14 20 6.5
      vertex 12.5178 11.7678 6.5
      vertex 12.7334 11.5219 6.5
    endloop
  endfacet
  facet normal 0 0 1
    outer loop
      vertex 14 20 6.5
      vertex 12.2719 11.9834 6.5
      vertex 12.5178 11.7678 6.5
    endloop
  endfacet
  facet normal 0 0 1
    outer loop
      vertex 14 20 6.5
      vertex 12 12.1651 6.5
      vertex 12.2719 11.9834 6.5
    endloop
  endfacet
  facet normal 0 0 1
    outer loop
      vertex 14 20 6.5
      vertex 11.7067 12.3097 6.5
      vertex 12 12.1651 6.5
    endloop
  endfacet
  facet normal 0 0 1
    outer loop
      vertex 14 20 6.5
      vertex 11.397 12.4148 6.5
      vertex 11.7067 12.3097 6.5
    endloop
  endfacet
  facet normal 0 0 1
    outer loop
      vertex 14 20 6.5
      vertex 11.0763 12.4786 6.5
      vertex 11.397 12.4148 6.5
    endloop
  endfacet
  facet normal 0 0 1
    outer loop
      vertex 14 20 6.5
      vertex 10.75 12.5 6.5
      vertex 11.0763 12.4786 6.5
    endloop
  endfacet
  facet normal -0 0 1
    outer loop
      vertex 7.5 20 6.5
      vertex 10.75 12.5 6.5
      vertex 14 20 6.5
    endloop
  endfacet
  facet normal 0 0 1
    outer loop
      vertex 10.75 12.5 6.5
      vertex 7.5 20 6.5
      vertex 10.4237 12.4786 6.5
    endloop
  endfacet
  facet normal 0 0 1
    outer loop
      vertex 10.4237 12.4786 6.5
      vertex 7.5 20 6.5
      vertex 10.103 12.4148 6.5
    endloop
  endfacet
  facet normal 0 0 1
    outer loop
      vertex 10.103 12.4148 6.5
      vertex 7.5 20 6.5
      vertex 9.79329 12.3097 6.5
    endloop
  endfacet
  facet normal 0 0 1
    outer loop
      vertex 9.79329 12.3097 6.5
      vertex 7.5 20 6.5
      vertex 9.5 12.1651 6.5
    endloop
  endfacet
  facet normal 0 0 1
    outer loop
      vertex 9.5 12.1651 6.5
      vertex 7.5 20 6.5
      vertex 9.2281 11.9834 6.5
    endloop
  endfacet
  facet normal 0 0 1
    outer loop
      vertex 9.2281 11.9834 6.5
      vertex 7.5 20 6.5
      vertex 8.98223 11.7678 6.5
    endloop
  endfacet
  facet normal 0 0 1
    outer loop
      vertex 8.98223 11.7678 6.5
      vertex 7.5 20 6.5
      vertex 8.76662 11.5219 6.5
    endloop
  endfacet
  facet normal 0 0 1
    outer loop
      vertex 8.27139 10.3263 6.5
      vertex 7.5 20 6.5
      vertex 8.25 10 6.5
    endloop
  endfacet
  facet normal 0 0 1
    outer loop
      vertex 8.33519 10.647 6.5
      vertex 7.5 20 6.5
      vertex 8.27139 10.3263 6.5
    endloop
  endfacet
  facet normal 0 0 1
    outer loop
      vertex 8.4403 10.9567 6.5
      vertex 7.5 20 6.5
      vertex 8.33519 10.647 6.5
    endloop
  endfacet
  facet normal 0 0 1
    outer loop
      vertex 8.58494 11.25 6.5
      vertex 7.5 20 6.5
      vertex 8.4403 10.9567 6.5
    endloop
  endfacet
  facet normal 0 0 1
    outer loop
      vertex 8.76662 11.5219 6.5
      vertex 7.5 20 6.5
      vertex 8.58494 11.25 6.5
    endloop
  endfacet
  facet normal -0 0 1
    outer loop
      vertex 13.2286 9.67368 6.5
      vertex 14 0 6.5
      vertex 13.25 10 6.5
    endloop
  endfacet
  facet normal -0 0 1
    outer loop
      vertex 13.1648 9.35295 6.5
      vertex 14 0 6.5
      vertex 13.2286 9.67368 6.5
    endloop
  endfacet
  facet normal -0 0 1
    outer loop
      vertex 13.0597 9.04329 6.5
      vertex 14 0 6.5
      vertex 13.1648 9.35295 6.5
    endloop
  endfacet
  facet normal -0 0 1
    outer loop
      vertex 12.9151 8.75 6.5
      vertex 14 0 6.5
      vertex 13.0597 9.04329 6.5
    endloop
  endfacet
  facet normal -0 0 1
    outer loop
      vertex 12.7334 8.4781 6.5
      vertex 14 0 6.5
      vertex 12.9151 8.75 6.5
    endloop
  endfacet
  facet normal -0 0 1
    outer loop
      vertex 12.5178 8.23223 6.5
      vertex 14 0 6.5
      vertex 12.7334 8.4781 6.5
    endloop
  endfacet
  facet normal -0 0 1
    outer loop
      vertex 12.2719 8.01662 6.5
      vertex 14 0 6.5
      vertex 12.5178 8.23223 6.5
    endloop
  endfacet
  facet normal -0 0 1
    outer loop
      vertex 12 7.83494 6.5
      vertex 14 0 6.5
      vertex 12.2719 8.01662 6.5
    endloop
  endfacet
  facet normal -0 0 1
    outer loop
      vertex 11.7067 7.6903 6.5
      vertex 14 0 6.5
      vertex 12 7.83494 6.5
    endloop
  endfacet
  facet normal -0 0 1
    outer loop
      vertex 11.397 7.58519 6.5
      vertex 14 0 6.5
      vertex 11.7067 7.6903 6.5
    endloop
  endfacet
  facet normal -0 0 1
    outer loop
      vertex 11.0763 7.52139 6.5
      vertex 14 0 6.5
      vertex 11.397 7.58519 6.5
    endloop
  endfacet
  facet normal -0 0 1
    outer loop
      vertex 10.75 7.5 6.5
      vertex 14 0 6.5
      vertex 11.0763 7.52139 6.5
    endloop
  endfacet
  facet normal 0 0 1
    outer loop
      vertex 7.5 0 6.5
      vertex 10.75 7.5 6.5
      vertex 10.4237 7.52139 6.5
    endloop
  endfacet
  facet normal 0 0 1
    outer loop
      vertex 7.5 0 6.5
      vertex 10.4237 7.52139 6.5
      vertex 10.103 7.58519 6.5
    endloop
  endfacet
  facet normal 0 0 1
    outer loop
      vertex 7.5 0 6.5
      vertex 10.103 7.58519 6.5
      vertex 9.79329 7.6903 6.5
    endloop
  endfacet
  facet normal 0 0 1
    outer loop
      vertex 7.5 0 6.5
      vertex 9.79329 7.6903 6.5
      vertex 9.5 7.83494 6.5
    endloop
  endfacet
  facet normal 0 0 1
    outer loop
      vertex 7.5 0 6.5
      vertex 9.5 7.83494 6.5
      vertex 9.2281 8.01662 6.5
    endloop
  endfacet
  facet normal 0 0 1
    outer loop
      vertex 7.5 0 6.5
      vertex 9.2281 8.01662 6.5
      vertex 8.98223 8.23223 6.5
    endloop
  endfacet
  facet normal 0 0 1
    outer loop
      vertex 7.5 0 6.5
      vertex 8.98223 8.23223 6.5
      vertex 8.76662 8.4781 6.5
    endloop
  endfacet
  facet normal 0 0 1
    outer loop
      vertex 7.5 0 6.5
      vertex 8.76662 8.4781 6.5
      vertex 8.58494 8.75 6.5
    endloop
  endfacet
  facet normal 0 0 1
    outer loop
      vertex 7.5 0 6.5
      vertex 8.25 10 6.5
      vertex 7.5 20 6.5
    endloop
  endfacet
  facet normal 0 0 1
    outer loop
      vertex 10.75 7.5 6.5
      vertex 7.5 0 6.5
      vertex 14 0 6.5
    endloop
  endfacet
  facet normal 0 0 1
    outer loop
      vertex 8.4403 9.04329 6.5
      vertex 7.5 0 6.5
      vertex 8.58494 8.75 6.5
    endloop
  endfacet
  facet normal 0 0 1
    outer loop
      vertex 8.33519 9.35295 6.5
      vertex 7.5 0 6.5
      vertex 8.4403 9.04329 6.5
    endloop
  endfacet
  facet normal 0 0 1
    outer loop
      vertex 8.27139 9.67368 6.5
      vertex 7.5 0 6.5
      vertex 8.33519 9.35295 6.5
    endloop
  endfacet
  facet normal 0 0 1
    outer loop
      vertex 8.25 10 6.5
      vertex 7.5 0 6.5
      vertex 8.27139 9.67368 6.5
    endloop
  endfacet
  facet normal 1 -0 0
    outer loop
      vertex 14 0 6.5
      vertex 14 20 4
      vertex 14 20 6.5
    endloop
  endfacet
  facet normal 1 0 0
    outer loop
      vertex 14 20 4
      vertex 14 0 6.5
      vertex 14 0 4
    endloop
  endfacet
  facet normal -0.555572 -0.831468 0
    outer loop
      vertex 45.125 13.6806 0
      vertex 45.5872 13.3718 4
      vertex 45.125 13.6806 4
    endloop
  endfacet
  facet normal -0.555572 -0.831468 -0
    outer loop
      vertex 45.5872 13.3718 4
      vertex 45.125 13.6806 0
      vertex 45.5872 13.3718 0
    endloop
  endfacet
  facet normal -0.980787 0.195083 0
    outer loop
      vertex 47.1052 8.90002 0
      vertex 47.2136 9.44526 4
      vertex 47.2136 9.44526 0
    endloop
  endfacet
  facet normal -0.980787 0.195083 0
    outer loop
      vertex 47.2136 9.44526 4
      vertex 47.1052 8.90002 0
      vertex 47.1052 8.90002 4
    endloop
  endfacet
  facet normal 0.195089 0.980785 -0
    outer loop
      vertex 42.4453 5.78636 0
      vertex 41.9 5.89481 4
      vertex 42.4453 5.78636 4
    endloop
  endfacet
  facet normal 0.195089 0.980785 0
    outer loop
      vertex 41.9 5.89481 4
      vertex 42.4453 5.78636 0
      vertex 41.9 5.89481 0
    endloop
  endfacet
  facet normal 0.442288 -0.896873 0
    outer loop
      vertex 40.875 13.6806 0
      vertex 41.3736 13.9265 4
      vertex 40.875 13.6806 4
    endloop
  endfacet
  facet normal 0.442288 -0.896873 0
    outer loop
      vertex 41.3736 13.9265 4
      vertex 40.875 13.6806 0
      vertex 41.3736 13.9265 0
    endloop
  endfacet
  facet normal 0.946931 -0.321438 0
    outer loop
      vertex 38.8948 11.1 4
      vertex 39.0735 11.6264 0
      vertex 39.0735 11.6264 4
    endloop
  endfacet
  facet normal 0.946931 -0.321438 0
    outer loop
      vertex 39.0735 11.6264 0
      vertex 38.8948 11.1 4
      vertex 38.8948 11.1 0
    endloop
  endfacet
  facet normal -0.751841 0.659345 0
    outer loop
      vertex 46.0052 6.9948 0
      vertex 46.3717 7.41276 4
      vertex 46.3717 7.41276 0
    endloop
  endfacet
  facet normal -0.751841 0.659345 0
    outer loop
      vertex 46.3717 7.41276 4
      vertex 46.0052 6.9948 0
      vertex 46.0052 6.9948 4
    endloop
  endfacet
  facet normal 0.321441 0.94693 -0
    outer loop
      vertex 41.9 5.89481 0
      vertex 41.3736 6.07351 4
      vertex 41.9 5.89481 4
    endloop
  endfacet
  facet normal 0.321441 0.94693 0
    outer loop
      vertex 41.3736 6.07351 4
      vertex 41.9 5.89481 0
      vertex 41.3736 6.07351 0
    endloop
  endfacet
  facet normal -0.896873 -0.442288 0
    outer loop
      vertex 46.9265 11.6264 0
      vertex 46.6806 12.125 4
      vertex 46.6806 12.125 0
    endloop
  endfacet
  facet normal -0.896873 -0.442288 0
    outer loop
      vertex 46.6806 12.125 4
      vertex 46.9265 11.6264 0
      vertex 46.9265 11.6264 4
    endloop
  endfacet
  facet normal -0.980787 -0.195083 0
    outer loop
      vertex 47.2136 10.5547 0
      vertex 47.1052 11.1 4
      vertex 47.1052 11.1 0
    endloop
  endfacet
  facet normal -0.980787 -0.195083 0
    outer loop
      vertex 47.1052 11.1 4
      vertex 47.2136 10.5547 0
      vertex 47.2136 10.5547 4
    endloop
  endfacet
  facet normal -0.831469 -0.555572 0
    outer loop
      vertex 46.6806 12.125 0
      vertex 46.3717 12.5872 4
      vertex 46.3717 12.5872 0
    endloop
  endfacet
  facet normal -0.831469 -0.555572 0
    outer loop
      vertex 46.3717 12.5872 4
      vertex 46.6806 12.125 0
      vertex 46.6806 12.125 4
    endloop
  endfacet
  facet normal -0.659345 -0.751841 0
    outer loop
      vertex 45.5872 13.3718 0
      vertex 46.0052 13.0052 4
      vertex 45.5872 13.3718 4
    endloop
  endfacet
  facet normal -0.659345 -0.751841 -0
    outer loop
      vertex 46.0052 13.0052 4
      vertex 45.5872 13.3718 0
      vertex 46.0052 13.0052 0
    endloop
  endfacet
  facet normal -0.321439 -0.94693 0
    outer loop
      vertex 44.1 14.1052 0
      vertex 44.6264 13.9265 4
      vertex 44.1 14.1052 4
    endloop
  endfacet
  facet normal -0.321439 -0.94693 -0
    outer loop
      vertex 44.6264 13.9265 4
      vertex 44.1 14.1052 0
      vertex 44.6264 13.9265 0
    endloop
  endfacet
  facet normal 0.0654038 -0.997859 0
    outer loop
      vertex 42.4453 14.2136 0
      vertex 43 14.25 4
      vertex 42.4453 14.2136 4
    endloop
  endfacet
  facet normal 0.0654038 -0.997859 0
    outer loop
      vertex 43 14.25 4
      vertex 42.4453 14.2136 0
      vertex 43 14.25 0
    endloop
  endfacet
  facet normal 0.831466 -0.555576 0
    outer loop
      vertex 39.3194 12.125 4
      vertex 39.6283 12.5872 0
      vertex 39.6283 12.5872 4
    endloop
  endfacet
  facet normal 0.831466 -0.555576 0
    outer loop
      vertex 39.6283 12.5872 0
      vertex 39.3194 12.125 4
      vertex 39.3194 12.125 0
    endloop
  endfacet
  facet normal 0.321441 -0.94693 0
    outer loop
      vertex 41.3736 13.9265 0
      vertex 41.9 14.1052 4
      vertex 41.3736 13.9265 4
    endloop
  endfacet
  facet normal 0.321441 -0.94693 0
    outer loop
      vertex 41.9 14.1052 4
      vertex 41.3736 13.9265 0
      vertex 41.9 14.1052 0
    endloop
  endfacet
  facet normal 0.751841 -0.659345 0
    outer loop
      vertex 39.6283 12.5872 4
      vertex 39.9948 13.0052 0
      vertex 39.9948 13.0052 4
    endloop
  endfacet
  facet normal 0.751841 -0.659345 0
    outer loop
      vertex 39.9948 13.0052 0
      vertex 39.6283 12.5872 4
      vertex 39.6283 12.5872 0
    endloop
  endfacet
  facet normal -0.997859 -0.0654074 0
    outer loop
      vertex 47.25 10 0
      vertex 47.2136 10.5547 4
      vertex 47.2136 10.5547 0
    endloop
  endfacet
  facet normal -0.997859 -0.0654074 0
    outer loop
      vertex 47.2136 10.5547 4
      vertex 47.25 10 0
      vertex 47.25 10 4
    endloop
  endfacet
  facet normal -0.195091 0.980785 0
    outer loop
      vertex 44.1 5.89481 0
      vertex 43.5547 5.78636 4
      vertex 44.1 5.89481 4
    endloop
  endfacet
  facet normal -0.195091 0.980785 0
    outer loop
      vertex 43.5547 5.78636 4
      vertex 44.1 5.89481 0
      vertex 43.5547 5.78636 0
    endloop
  endfacet
  facet normal -0.946929 0.321444 0
    outer loop
      vertex 46.9265 8.3736 0
      vertex 47.1052 8.90002 4
      vertex 47.1052 8.90002 0
    endloop
  endfacet
  facet normal -0.946929 0.321444 0
    outer loop
      vertex 47.1052 8.90002 4
      vertex 46.9265 8.3736 0
      vertex 46.9265 8.3736 4
    endloop
  endfacet
  facet normal 0.0654021 0.997859 -0
    outer loop
      vertex 43 5.75 0
      vertex 42.4453 5.78636 4
      vertex 43 5.75 4
    endloop
  endfacet
  facet normal 0.0654021 0.997859 0
    outer loop
      vertex 42.4453 5.78636 4
      vertex 43 5.75 0
      vertex 42.4453 5.78636 0
    endloop
  endfacet
  facet normal 0.555572 0.831468 -0
    outer loop
      vertex 40.875 6.31939 0
      vertex 40.4128 6.62825 4
      vertex 40.875 6.31939 4
    endloop
  endfacet
  facet normal 0.555572 0.831468 0
    outer loop
      vertex 40.4128 6.62825 4
      vertex 40.875 6.31939 0
      vertex 40.4128 6.62825 0
    endloop
  endfacet
  facet normal 0.946931 0.321438 0
    outer loop
      vertex 39.0735 8.3736 4
      vertex 38.8948 8.90002 0
      vertex 38.8948 8.90002 4
    endloop
  endfacet
  facet normal 0.946931 0.321438 0
    outer loop
      vertex 38.8948 8.90002 0
      vertex 39.0735 8.3736 4
      vertex 39.0735 8.3736 0
    endloop
  endfacet
  facet normal 0.659345 0.751841 -0
    outer loop
      vertex 40.4128 6.62825 0
      vertex 39.9948 6.9948 4
      vertex 40.4128 6.62825 4
    endloop
  endfacet
  facet normal 0.659345 0.751841 0
    outer loop
      vertex 39.9948 6.9948 4
      vertex 40.4128 6.62825 0
      vertex 39.9948 6.9948 0
    endloop
  endfacet
  facet normal -0.946929 -0.321444 0
    outer loop
      vertex 47.1052 11.1 0
      vertex 46.9265 11.6264 4
      vertex 46.9265 11.6264 0
    endloop
  endfacet
  facet normal -0.946929 -0.321444 0
    outer loop
      vertex 46.9265 11.6264 4
      vertex 47.1052 11.1 0
      vertex 47.1052 11.1 4
    endloop
  endfacet
  facet normal -0.751841 -0.659345 0
    outer loop
      vertex 46.3717 12.5872 0
      vertex 46.0052 13.0052 4
      vertex 46.0052 13.0052 0
    endloop
  endfacet
  facet normal -0.751841 -0.659345 0
    outer loop
      vertex 46.0052 13.0052 4
      vertex 46.3717 12.5872 0
      vertex 46.3717 12.5872 4
    endloop
  endfacet
  facet normal -0.442288 -0.896873 0
    outer loop
      vertex 44.6264 13.9265 0
      vertex 45.125 13.6806 4
      vertex 44.6264 13.9265 4
    endloop
  endfacet
  facet normal -0.442288 -0.896873 -0
    outer loop
      vertex 45.125 13.6806 4
      vertex 44.6264 13.9265 0
      vertex 45.125 13.6806 0
    endloop
  endfacet
  facet normal -0.195091 -0.980785 0
    outer loop
      vertex 43.5547 14.2136 0
      vertex 44.1 14.1052 4
      vertex 43.5547 14.2136 4
    endloop
  endfacet
  facet normal -0.195091 -0.980785 -0
    outer loop
      vertex 44.1 14.1052 4
      vertex 43.5547 14.2136 0
      vertex 44.1 14.1052 0
    endloop
  endfacet
  facet normal -0.0654038 -0.997859 0
    outer loop
      vertex 43 14.25 0
      vertex 43.5547 14.2136 4
      vertex 43 14.25 4
    endloop
  endfacet
  facet normal -0.0654038 -0.997859 -0
    outer loop
      vertex 43.5547 14.2136 4
      vertex 43 14.25 0
      vertex 43.5547 14.2136 0
    endloop
  endfacet
  facet normal 0.997859 0.0654004 0
    outer loop
      vertex 38.7864 9.44526 4
      vertex 38.75 10 0
      vertex 38.75 10 4
    endloop
  endfacet
  facet normal 0.997859 0.0654004 0
    outer loop
      vertex 38.75 10 0
      vertex 38.7864 9.44526 4
      vertex 38.7864 9.44526 0
    endloop
  endfacet
  facet normal 0.980785 -0.19509 0
    outer loop
      vertex 38.7864 10.5547 4
      vertex 38.8948 11.1 0
      vertex 38.8948 11.1 4
    endloop
  endfacet
  facet normal 0.980785 -0.19509 0
    outer loop
      vertex 38.8948 11.1 0
      vertex 38.7864 10.5547 4
      vertex 38.7864 10.5547 0
    endloop
  endfacet
  facet normal 0.896873 -0.442288 0
    outer loop
      vertex 39.0735 11.6264 4
      vertex 39.3194 12.125 0
      vertex 39.3194 12.125 4
    endloop
  endfacet
  facet normal 0.896873 -0.442288 0
    outer loop
      vertex 39.3194 12.125 0
      vertex 39.0735 11.6264 4
      vertex 39.0735 11.6264 0
    endloop
  endfacet
  facet normal 0.195089 -0.980785 0
    outer loop
      vertex 41.9 14.1052 0
      vertex 42.4453 14.2136 4
      vertex 41.9 14.1052 4
    endloop
  endfacet
  facet normal 0.195089 -0.980785 0
    outer loop
      vertex 42.4453 14.2136 4
      vertex 41.9 14.1052 0
      vertex 42.4453 14.2136 0
    endloop
  endfacet
  facet normal 0.659345 -0.751841 0
    outer loop
      vertex 39.9948 13.0052 0
      vertex 40.4128 13.3718 4
      vertex 39.9948 13.0052 4
    endloop
  endfacet
  facet normal 0.659345 -0.751841 0
    outer loop
      vertex 40.4128 13.3718 4
      vertex 39.9948 13.0052 0
      vertex 40.4128 13.3718 0
    endloop
  endfacet
  facet normal 0.555572 -0.831468 0
    outer loop
      vertex 40.4128 13.3718 0
      vertex 40.875 13.6806 4
      vertex 40.4128 13.3718 4
    endloop
  endfacet
  facet normal 0.555572 -0.831468 0
    outer loop
      vertex 40.875 13.6806 4
      vertex 40.4128 13.3718 0
      vertex 40.875 13.6806 0
    endloop
  endfacet
  facet normal -0.997859 0.0654073 0
    outer loop
      vertex 47.2136 9.44526 0
      vertex 47.25 10 4
      vertex 47.25 10 0
    endloop
  endfacet
  facet normal -0.997859 0.0654073 0
    outer loop
      vertex 47.25 10 4
      vertex 47.2136 9.44526 0
      vertex 47.2136 9.44526 4
    endloop
  endfacet
  facet normal -0.831469 0.555572 0
    outer loop
      vertex 46.3717 7.41276 0
      vertex 46.6806 7.875 4
      vertex 46.6806 7.875 0
    endloop
  endfacet
  facet normal -0.831469 0.555572 0
    outer loop
      vertex 46.6806 7.875 4
      vertex 46.3717 7.41276 0
      vertex 46.3717 7.41276 4
    endloop
  endfacet
  facet normal -0.896873 0.442288 0
    outer loop
      vertex 46.6806 7.875 0
      vertex 46.9265 8.3736 4
      vertex 46.9265 8.3736 0
    endloop
  endfacet
  facet normal -0.896873 0.442288 0
    outer loop
      vertex 46.9265 8.3736 4
      vertex 46.6806 7.875 0
      vertex 46.6806 7.875 4
    endloop
  endfacet
  facet normal -0.321439 0.94693 0
    outer loop
      vertex 44.6264 6.07351 0
      vertex 44.1 5.89481 4
      vertex 44.6264 6.07351 4
    endloop
  endfacet
  facet normal -0.321439 0.94693 0
    outer loop
      vertex 44.1 5.89481 4
      vertex 44.6264 6.07351 0
      vertex 44.1 5.89481 0
    endloop
  endfacet
  facet normal -0.555572 0.831468 0
    outer loop
      vertex 45.5872 6.62825 0
      vertex 45.125 6.31939 4
      vertex 45.5872 6.62825 4
    endloop
  endfacet
  facet normal -0.555572 0.831468 0
    outer loop
      vertex 45.125 6.31939 4
      vertex 45.5872 6.62825 0
      vertex 45.125 6.31939 0
    endloop
  endfacet
  facet normal -0.0654021 0.997859 0
    outer loop
      vertex 43.5547 5.78636 0
      vertex 43 5.75 4
      vertex 43.5547 5.78636 4
    endloop
  endfacet
  facet normal -0.0654021 0.997859 0
    outer loop
      vertex 43 5.75 4
      vertex 43.5547 5.78636 0
      vertex 43 5.75 0
    endloop
  endfacet
  facet normal 0.442288 0.896873 -0
    outer loop
      vertex 41.3736 6.07351 0
      vertex 40.875 6.31939 4
      vertex 41.3736 6.07351 4
    endloop
  endfacet
  facet normal 0.442288 0.896873 0
    outer loop
      vertex 40.875 6.31939 4
      vertex 41.3736 6.07351 0
      vertex 40.875 6.31939 0
    endloop
  endfacet
  facet normal 0.896873 0.442289 0
    outer loop
      vertex 39.3194 7.875 4
      vertex 39.0735 8.3736 0
      vertex 39.0735 8.3736 4
    endloop
  endfacet
  facet normal 0.896873 0.442289 0
    outer loop
      vertex 39.0735 8.3736 0
      vertex 39.3194 7.875 4
      vertex 39.3194 7.875 0
    endloop
  endfacet
  facet normal 0.980785 0.19509 0
    outer loop
      vertex 38.8948 8.90002 4
      vertex 38.7864 9.44526 0
      vertex 38.7864 9.44526 4
    endloop
  endfacet
  facet normal 0.980785 0.19509 0
    outer loop
      vertex 38.7864 9.44526 0
      vertex 38.8948 8.90002 4
      vertex 38.8948 8.90002 0
    endloop
  endfacet
  facet normal 0.831466 0.555576 0
    outer loop
      vertex 39.6283 7.41276 4
      vertex 39.3194 7.875 0
      vertex 39.3194 7.875 4
    endloop
  endfacet
  facet normal 0.831466 0.555576 0
    outer loop
      vertex 39.3194 7.875 0
      vertex 39.6283 7.41276 4
      vertex 39.6283 7.41276 0
    endloop
  endfacet
  facet normal 0.997859 -0.0654005 0
    outer loop
      vertex 38.75 10 4
      vertex 38.7864 10.5547 0
      vertex 38.7864 10.5547 4
    endloop
  endfacet
  facet normal 0.997859 -0.0654005 0
    outer loop
      vertex 38.7864 10.5547 0
      vertex 38.75 10 4
      vertex 38.75 10 0
    endloop
  endfacet
  facet normal -0.442288 0.896873 0
    outer loop
      vertex 45.125 6.31939 0
      vertex 44.6264 6.07351 4
      vertex 45.125 6.31939 4
    endloop
  endfacet
  facet normal -0.442288 0.896873 0
    outer loop
      vertex 44.6264 6.07351 4
      vertex 45.125 6.31939 0
      vertex 44.6264 6.07351 0
    endloop
  endfacet
  facet normal -0.659345 0.751841 0
    outer loop
      vertex 46.0052 6.9948 0
      vertex 45.5872 6.62825 4
      vertex 46.0052 6.9948 4
    endloop
  endfacet
  facet normal -0.659345 0.751841 0
    outer loop
      vertex 45.5872 6.62825 4
      vertex 46.0052 6.9948 0
      vertex 45.5872 6.62825 0
    endloop
  endfacet
  facet normal 0.751841 0.659345 0
    outer loop
      vertex 39.9948 6.9948 4
      vertex 39.6283 7.41276 0
      vertex 39.6283 7.41276 4
    endloop
  endfacet
  facet normal 0.751841 0.659345 0
    outer loop
      vertex 39.6283 7.41276 0
      vertex 39.9948 6.9948 4
      vertex 39.9948 6.9948 0
    endloop
  endfacet
  facet normal -0.55557 -0.83147 0
    outer loop
      vertex 12 12.1651 0
      vertex 12.2719 11.9834 6.5
      vertex 12 12.1651 6.5
    endloop
  endfacet
  facet normal -0.55557 -0.83147 -0
    outer loop
      vertex 12.2719 11.9834 6.5
      vertex 12 12.1651 0
      vertex 12.2719 11.9834 0
    endloop
  endfacet
  facet normal 0.195091 0.980785 -0
    outer loop
      vertex 10.4237 7.52139 0
      vertex 10.103 7.58519 6.5
      vertex 10.4237 7.52139 6.5
    endloop
  endfacet
  facet normal 0.195091 0.980785 0
    outer loop
      vertex 10.103 7.58519 6.5
      vertex 10.4237 7.52139 0
      vertex 10.103 7.58519 0
    endloop
  endfacet
  facet normal 0.442289 -0.896873 0
    outer loop
      vertex 9.5 12.1651 0
      vertex 9.79329 12.3097 6.5
      vertex 9.5 12.1651 6.5
    endloop
  endfacet
  facet normal 0.442289 -0.896873 0
    outer loop
      vertex 9.79329 12.3097 6.5
      vertex 9.5 12.1651 0
      vertex 9.79329 12.3097 0
    endloop
  endfacet
  facet normal 0.94693 -0.32144 0
    outer loop
      vertex 8.33519 10.647 6.5
      vertex 8.4403 10.9567 0
      vertex 8.4403 10.9567 6.5
    endloop
  endfacet
  facet normal 0.94693 -0.32144 0
    outer loop
      vertex 8.4403 10.9567 0
      vertex 8.33519 10.647 6.5
      vertex 8.33519 10.647 0
    endloop
  endfacet
  facet normal -0.94693 0.32144 0
    outer loop
      vertex 13.0597 9.04329 0
      vertex 13.1648 9.35295 6.5
      vertex 13.1648 9.35295 0
    endloop
  endfacet
  facet normal -0.94693 0.32144 0
    outer loop
      vertex 13.1648 9.35295 6.5
      vertex 13.0597 9.04329 0
      vertex 13.0597 9.04329 6.5
    endloop
  endfacet
  facet normal 0.32144 0.94693 -0
    outer loop
      vertex 10.103 7.58519 0
      vertex 9.79329 7.6903 6.5
      vertex 10.103 7.58519 6.5
    endloop
  endfacet
  facet normal 0.32144 0.94693 0
    outer loop
      vertex 9.79329 7.6903 6.5
      vertex 10.103 7.58519 0
      vertex 9.79329 7.6903 0
    endloop
  endfacet
  facet normal -0.896873 -0.442288 0
    outer loop
      vertex 13.0597 10.9567 0
      vertex 12.9151 11.25 6.5
      vertex 12.9151 11.25 0
    endloop
  endfacet
  facet normal -0.896873 -0.442288 0
    outer loop
      vertex 12.9151 11.25 6.5
      vertex 13.0597 10.9567 0
      vertex 13.0597 10.9567 6.5
    endloop
  endfacet
  facet normal -0.980785 -0.195091 0
    outer loop
      vertex 13.2286 10.3263 0
      vertex 13.1648 10.647 6.5
      vertex 13.1648 10.647 0
    endloop
  endfacet
  facet normal -0.980785 -0.195091 0
    outer loop
      vertex 13.1648 10.647 6.5
      vertex 13.2286 10.3263 0
      vertex 13.2286 10.3263 6.5
    endloop
  endfacet
  facet normal -0.83147 -0.55557 0
    outer loop
      vertex 12.9151 11.25 0
      vertex 12.7334 11.5219 6.5
      vertex 12.7334 11.5219 0
    endloop
  endfacet
  facet normal -0.83147 -0.55557 0
    outer loop
      vertex 12.7334 11.5219 6.5
      vertex 12.9151 11.25 0
      vertex 12.9151 11.25 6.5
    endloop
  endfacet
  facet normal -0.659345 -0.751841 0
    outer loop
      vertex 12.2719 11.9834 0
      vertex 12.5178 11.7678 6.5
      vertex 12.2719 11.9834 6.5
    endloop
  endfacet
  facet normal -0.659345 -0.751841 -0
    outer loop
      vertex 12.5178 11.7678 6.5
      vertex 12.2719 11.9834 0
      vertex 12.5178 11.7678 0
    endloop
  endfacet
  facet normal -0.32144 -0.94693 0
    outer loop
      vertex 11.397 12.4148 0
      vertex 11.7067 12.3097 6.5
      vertex 11.397 12.4148 6.5
    endloop
  endfacet
  facet normal -0.32144 -0.94693 -0
    outer loop
      vertex 11.7067 12.3097 6.5
      vertex 11.397 12.4148 0
      vertex 11.7067 12.3097 0
    endloop
  endfacet
  facet normal 0.0654037 -0.997859 0
    outer loop
      vertex 10.4237 12.4786 0
      vertex 10.75 12.5 6.5
      vertex 10.4237 12.4786 6.5
    endloop
  endfacet
  facet normal 0.0654037 -0.997859 0
    outer loop
      vertex 10.75 12.5 6.5
      vertex 10.4237 12.4786 0
      vertex 10.75 12.5 0
    endloop
  endfacet
  facet normal 0.83147 -0.55557 0
    outer loop
      vertex 8.58494 11.25 6.5
      vertex 8.76662 11.5219 0
      vertex 8.76662 11.5219 6.5
    endloop
  endfacet
  facet normal 0.83147 -0.55557 0
    outer loop
      vertex 8.76662 11.5219 0
      vertex 8.58494 11.25 6.5
      vertex 8.58494 11.25 0
    endloop
  endfacet
  facet normal 0.32144 -0.94693 0
    outer loop
      vertex 9.79329 12.3097 0
      vertex 10.103 12.4148 6.5
      vertex 9.79329 12.3097 6.5
    endloop
  endfacet
  facet normal 0.32144 -0.94693 0
    outer loop
      vertex 10.103 12.4148 6.5
      vertex 9.79329 12.3097 0
      vertex 10.103 12.4148 0
    endloop
  endfacet
  facet normal 0.751841 -0.659345 0
    outer loop
      vertex 8.76662 11.5219 6.5
      vertex 8.98223 11.7678 0
      vertex 8.98223 11.7678 6.5
    endloop
  endfacet
  facet normal 0.751841 -0.659345 0
    outer loop
      vertex 8.98223 11.7678 0
      vertex 8.76662 11.5219 6.5
      vertex 8.76662 11.5219 0
    endloop
  endfacet
  facet normal -0.997859 -0.0654039 0
    outer loop
      vertex 13.25 10 0
      vertex 13.2286 10.3263 6.5
      vertex 13.2286 10.3263 0
    endloop
  endfacet
  facet normal -0.997859 -0.0654039 0
    outer loop
      vertex 13.2286 10.3263 6.5
      vertex 13.25 10 0
      vertex 13.25 10 6.5
    endloop
  endfacet
  facet normal -0.195091 0.980785 0
    outer loop
      vertex 11.397 7.58519 0
      vertex 11.0763 7.52139 6.5
      vertex 11.397 7.58519 6.5
    endloop
  endfacet
  facet normal -0.195091 0.980785 0
    outer loop
      vertex 11.0763 7.52139 6.5
      vertex 11.397 7.58519 0
      vertex 11.0763 7.52139 0
    endloop
  endfacet
  facet normal -0.83147 0.55557 0
    outer loop
      vertex 12.7334 8.4781 0
      vertex 12.9151 8.75 6.5
      vertex 12.9151 8.75 0
    endloop
  endfacet
  facet normal -0.83147 0.55557 0
    outer loop
      vertex 12.9151 8.75 6.5
      vertex 12.7334 8.4781 0
      vertex 12.7334 8.4781 6.5
    endloop
  endfacet
  facet normal 0.0654008 0.997859 -0
    outer loop
      vertex 10.75 7.5 0
      vertex 10.4237 7.52139 6.5
      vertex 10.75 7.5 6.5
    endloop
  endfacet
  facet normal 0.0654008 0.997859 0
    outer loop
      vertex 10.4237 7.52139 6.5
      vertex 10.75 7.5 0
      vertex 10.4237 7.52139 0
    endloop
  endfacet
  facet normal 0.55557 0.83147 -0
    outer loop
      vertex 9.5 7.83494 0
      vertex 9.2281 8.01662 6.5
      vertex 9.5 7.83494 6.5
    endloop
  endfacet
  facet normal 0.55557 0.83147 0
    outer loop
      vertex 9.2281 8.01662 6.5
      vertex 9.5 7.83494 0
      vertex 9.2281 8.01662 0
    endloop
  endfacet
  facet normal 0.94693 0.32144 0
    outer loop
      vertex 8.4403 9.04329 6.5
      vertex 8.33519 9.35295 0
      vertex 8.33519 9.35295 6.5
    endloop
  endfacet
  facet normal 0.94693 0.32144 0
    outer loop
      vertex 8.33519 9.35295 0
      vertex 8.4403 9.04329 6.5
      vertex 8.4403 9.04329 0
    endloop
  endfacet
  facet normal 0.659345 0.751841 -0
    outer loop
      vertex 9.2281 8.01662 0
      vertex 8.98223 8.23223 6.5
      vertex 9.2281 8.01662 6.5
    endloop
  endfacet
  facet normal 0.659345 0.751841 0
    outer loop
      vertex 8.98223 8.23223 6.5
      vertex 9.2281 8.01662 0
      vertex 8.98223 8.23223 0
    endloop
  endfacet
  facet normal -0.94693 -0.32144 0
    outer loop
      vertex 13.1648 10.647 0
      vertex 13.0597 10.9567 6.5
      vertex 13.0597 10.9567 0
    endloop
  endfacet
  facet normal -0.94693 -0.32144 0
    outer loop
      vertex 13.0597 10.9567 6.5
      vertex 13.1648 10.647 0
      vertex 13.1648 10.647 6.5
    endloop
  endfacet
  facet normal -0.751841 -0.659345 0
    outer loop
      vertex 12.7334 11.5219 0
      vertex 12.5178 11.7678 6.5
      vertex 12.5178 11.7678 0
    endloop
  endfacet
  facet normal -0.751841 -0.659345 0
    outer loop
      vertex 12.5178 11.7678 6.5
      vertex 12.7334 11.5219 0
      vertex 12.7334 11.5219 6.5
    endloop
  endfacet
  facet normal -0.442288 -0.896873 0
    outer loop
      vertex 11.7067 12.3097 0
      vertex 12 12.1651 6.5
      vertex 11.7067 12.3097 6.5
    endloop
  endfacet
  facet normal -0.442288 -0.896873 -0
    outer loop
      vertex 12 12.1651 6.5
      vertex 11.7067 12.3097 0
      vertex 12 12.1651 0
    endloop
  endfacet
  facet normal -0.195091 -0.980785 0
    outer loop
      vertex 11.0763 12.4786 0
      vertex 11.397 12.4148 6.5
      vertex 11.0763 12.4786 6.5
    endloop
  endfacet
  facet normal -0.195091 -0.980785 -0
    outer loop
      vertex 11.397 12.4148 6.5
      vertex 11.0763 12.4786 0
      vertex 11.397 12.4148 0
    endloop
  endfacet
  facet normal -0.0654039 -0.997859 0
    outer loop
      vertex 10.75 12.5 0
      vertex 11.0763 12.4786 6.5
      vertex 10.75 12.5 6.5
    endloop
  endfacet
  facet normal -0.0654039 -0.997859 -0
    outer loop
      vertex 11.0763 12.4786 6.5
      vertex 10.75 12.5 0
      vertex 11.0763 12.4786 0
    endloop
  endfacet
  facet normal 0.997859 0.0654008 0
    outer loop
      vertex 8.27139 9.67368 6.5
      vertex 8.25 10 0
      vertex 8.25 10 6.5
    endloop
  endfacet
  facet normal 0.997859 0.0654008 0
    outer loop
      vertex 8.25 10 0
      vertex 8.27139 9.67368 6.5
      vertex 8.27139 9.67368 0
    endloop
  endfacet
  facet normal 0.980785 -0.195091 0
    outer loop
      vertex 8.27139 10.3263 6.5
      vertex 8.33519 10.647 0
      vertex 8.33519 10.647 6.5
    endloop
  endfacet
  facet normal 0.980785 -0.195091 0
    outer loop
      vertex 8.33519 10.647 0
      vertex 8.27139 10.3263 6.5
      vertex 8.27139 10.3263 0
    endloop
  endfacet
  facet normal 0.896873 -0.442288 0
    outer loop
      vertex 8.4403 10.9567 6.5
      vertex 8.58494 11.25 0
      vertex 8.58494 11.25 6.5
    endloop
  endfacet
  facet normal 0.896873 -0.442288 0
    outer loop
      vertex 8.58494 11.25 0
      vertex 8.4403 10.9567 6.5
      vertex 8.4403 10.9567 0
    endloop
  endfacet
  facet normal 0.195091 -0.980785 0
    outer loop
      vertex 10.103 12.4148 0
      vertex 10.4237 12.4786 6.5
      vertex 10.103 12.4148 6.5
    endloop
  endfacet
  facet normal 0.195091 -0.980785 0
    outer loop
      vertex 10.4237 12.4786 6.5
      vertex 10.103 12.4148 0
      vertex 10.4237 12.4786 0
    endloop
  endfacet
  facet normal 0.659345 -0.751841 0
    outer loop
      vertex 8.98223 11.7678 0
      vertex 9.2281 11.9834 6.5
      vertex 8.98223 11.7678 6.5
    endloop
  endfacet
  facet normal 0.659345 -0.751841 0
    outer loop
      vertex 9.2281 11.9834 6.5
      vertex 8.98223 11.7678 0
      vertex 9.2281 11.9834 0
    endloop
  endfacet
  facet normal 0.555569 -0.831471 0
    outer loop
      vertex 9.2281 11.9834 0
      vertex 9.5 12.1651 6.5
      vertex 9.2281 11.9834 6.5
    endloop
  endfacet
  facet normal 0.555569 -0.831471 0
    outer loop
      vertex 9.5 12.1651 6.5
      vertex 9.2281 11.9834 0
      vertex 9.5 12.1651 0
    endloop
  endfacet
  facet normal -0.980785 0.195091 0
    outer loop
      vertex 13.1648 9.35295 0
      vertex 13.2286 9.67368 6.5
      vertex 13.2286 9.67368 0
    endloop
  endfacet
  facet normal -0.980785 0.195091 0
    outer loop
      vertex 13.2286 9.67368 6.5
      vertex 13.1648 9.35295 0
      vertex 13.1648 9.35295 6.5
    endloop
  endfacet
  facet normal -0.32144 0.94693 0
    outer loop
      vertex 11.7067 7.6903 0
      vertex 11.397 7.58519 6.5
      vertex 11.7067 7.6903 6.5
    endloop
  endfacet
  facet normal -0.32144 0.94693 0
    outer loop
      vertex 11.397 7.58519 6.5
      vertex 11.7067 7.6903 0
      vertex 11.397 7.58519 0
    endloop
  endfacet
  facet normal -0.751841 0.659345 0
    outer loop
      vertex 12.5178 8.23223 0
      vertex 12.7334 8.4781 6.5
      vertex 12.7334 8.4781 0
    endloop
  endfacet
  facet normal -0.751841 0.659345 0
    outer loop
      vertex 12.7334 8.4781 6.5
      vertex 12.5178 8.23223 0
      vertex 12.5178 8.23223 6.5
    endloop
  endfacet
  facet normal -0.55557 0.83147 0
    outer loop
      vertex 12.2719 8.01662 0
      vertex 12 7.83494 6.5
      vertex 12.2719 8.01662 6.5
    endloop
  endfacet
  facet normal -0.55557 0.83147 0
    outer loop
      vertex 12 7.83494 6.5
      vertex 12.2719 8.01662 0
      vertex 12 7.83494 0
    endloop
  endfacet
  facet normal -0.896873 0.442288 0
    outer loop
      vertex 12.9151 8.75 0
      vertex 13.0597 9.04329 6.5
      vertex 13.0597 9.04329 0
    endloop
  endfacet
  facet normal -0.896873 0.442288 0
    outer loop
      vertex 13.0597 9.04329 6.5
      vertex 12.9151 8.75 0
      vertex 12.9151 8.75 6.5
    endloop
  endfacet
  facet normal -0.065401 0.997859 0
    outer loop
      vertex 11.0763 7.52139 0
      vertex 10.75 7.5 6.5
      vertex 11.0763 7.52139 6.5
    endloop
  endfacet
  facet normal -0.065401 0.997859 0
    outer loop
      vertex 10.75 7.5 6.5
      vertex 11.0763 7.52139 0
      vertex 10.75 7.5 0
    endloop
  endfacet
  facet normal 0.442288 0.896873 -0
    outer loop
      vertex 9.79329 7.6903 0
      vertex 9.5 7.83494 6.5
      vertex 9.79329 7.6903 6.5
    endloop
  endfacet
  facet normal 0.442288 0.896873 0
    outer loop
      vertex 9.5 7.83494 6.5
      vertex 9.79329 7.6903 0
      vertex 9.5 7.83494 0
    endloop
  endfacet
  facet normal 0.896873 0.442289 0
    outer loop
      vertex 8.58494 8.75 6.5
      vertex 8.4403 9.04329 0
      vertex 8.4403 9.04329 6.5
    endloop
  endfacet
  facet normal 0.896873 0.442289 0
    outer loop
      vertex 8.4403 9.04329 0
      vertex 8.58494 8.75 6.5
      vertex 8.58494 8.75 0
    endloop
  endfacet
  facet normal 0.980785 0.195091 0
    outer loop
      vertex 8.33519 9.35295 6.5
      vertex 8.27139 9.67368 0
      vertex 8.27139 9.67368 6.5
    endloop
  endfacet
  facet normal 0.980785 0.195091 0
    outer loop
      vertex 8.27139 9.67368 0
      vertex 8.33519 9.35295 6.5
      vertex 8.33519 9.35295 0
    endloop
  endfacet
  facet normal 0.831471 0.555569 0
    outer loop
      vertex 8.76662 8.4781 6.5
      vertex 8.58494 8.75 0
      vertex 8.58494 8.75 6.5
    endloop
  endfacet
  facet normal 0.831471 0.555569 0
    outer loop
      vertex 8.58494 8.75 0
      vertex 8.76662 8.4781 6.5
      vertex 8.76662 8.4781 0
    endloop
  endfacet
  facet normal 0.997859 -0.065401 0
    outer loop
      vertex 8.25 10 6.5
      vertex 8.27139 10.3263 0
      vertex 8.27139 10.3263 6.5
    endloop
  endfacet
  facet normal 0.997859 -0.065401 0
    outer loop
      vertex 8.27139 10.3263 0
      vertex 8.25 10 6.5
      vertex 8.25 10 0
    endloop
  endfacet
  facet normal -0.997859 0.0654037 0
    outer loop
      vertex 13.2286 9.67368 0
      vertex 13.25 10 6.5
      vertex 13.25 10 0
    endloop
  endfacet
  facet normal -0.997859 0.0654037 0
    outer loop
      vertex 13.25 10 6.5
      vertex 13.2286 9.67368 0
      vertex 13.2286 9.67368 6.5
    endloop
  endfacet
  facet normal -0.442288 0.896873 0
    outer loop
      vertex 12 7.83494 0
      vertex 11.7067 7.6903 6.5
      vertex 12 7.83494 6.5
    endloop
  endfacet
  facet normal -0.442288 0.896873 0
    outer loop
      vertex 11.7067 7.6903 6.5
      vertex 12 7.83494 0
      vertex 11.7067 7.6903 0
    endloop
  endfacet
  facet normal -0.659345 0.751841 0
    outer loop
      vertex 12.5178 8.23223 0
      vertex 12.2719 8.01662 6.5
      vertex 12.5178 8.23223 6.5
    endloop
  endfacet
  facet normal -0.659345 0.751841 0
    outer loop
      vertex 12.2719 8.01662 6.5
      vertex 12.5178 8.23223 0
      vertex 12.2719 8.01662 0
    endloop
  endfacet
  facet normal 0.751841 0.659345 0
    outer loop
      vertex 8.98223 8.23223 6.5
      vertex 8.76662 8.4781 0
      vertex 8.76662 8.4781 6.5
    endloop
  endfacet
  facet normal 0.751841 0.659345 0
    outer loop
      vertex 8.76662 8.4781 0
      vertex 8.98223 8.23223 6.5
      vertex 8.98223 8.23223 0
    endloop
  endfacet
endsolid OpenSCAD_Model
